<svg width="65" height="66" viewBox="0 0 65 66" fill="none" xmlns="http://www.w3.org/2000/svg">
<g clip-path="url(#clip0_3002_167)">
<rect x="5" y="5.5" width="55" height="55" rx="7" fill="#B20237"/>
<rect x="1" y="1.5" width="63" height="63" rx="10" stroke="#B20237" stroke-width="2"/>
<path d="M55 30.0983C55 33.2178 45.1503 35.7468 33 35.7468C20.8497 35.7468 11 33.2178 11 30.0983C11 28.3237 14.1871 26.7403 19.1718 25.7048L21.0686 18.5041C21.7456 15.9341 24.8793 14.8097 27.3148 15.9511C29.1369 16.8051 31.2021 17.5276 33 17.5461C34.9537 17.5661 37.217 16.8066 39.1925 15.9137C41.6669 14.7954 44.8077 16.024 45.3984 18.64L47.0017 25.7412C51.8868 26.7773 55 28.3444 55 30.0983Z" fill="white"/>
<path fill-rule="evenodd" clip-rule="evenodd" d="M47.8931 38.5712C43.4294 39.1989 38.9663 39.5124 33.2265 39.5124C27.4866 39.5124 23.0236 39.1989 18.5598 38.5712C16.6468 38.3022 15.615 40.2318 16.3279 42.3368C18.8786 49.868 27.1685 51.25 29.7192 50.1819C30.4386 49.8806 30.9695 49.3225 31.458 48.8089C32.0277 48.2099 32.5399 47.6714 33.2265 47.6714C33.9131 47.6714 34.4253 48.2099 34.995 48.8089C35.4835 49.3225 36.0143 49.8806 36.7337 50.1819C39.2844 51.25 47.5743 49.868 50.125 42.3368C50.8379 40.2318 49.8062 38.3022 47.8931 38.5712ZM21.5214 43.2781C21.7397 42.2033 23.4345 42.0229 24.7098 42.0229C26.304 42.0229 29.8122 42.6505 29.8122 43.9057C29.8122 45.4655 27.6204 46.6565 25.6666 46.4162C23.1159 46.1024 21.3667 44.0399 21.5214 43.2781ZM41.6096 42.0229C42.885 42.0229 44.5797 42.2033 44.798 43.2781C44.9527 44.0399 43.2035 46.1024 40.6528 46.4162C38.699 46.6565 36.5072 45.4655 36.5072 43.9057C36.5072 42.6505 40.0154 42.0229 41.6096 42.0229Z" fill="white"/>
<path d="M19.1718 25.7048L18.187 29.4432C18.0939 29.7967 18.3219 30.1521 18.6878 30.2129C20.8649 30.5744 27.87 31.6673 33 31.6673C38.1478 31.6673 45.1836 30.5668 47.3346 30.2091C47.6918 30.1497 47.9201 29.8085 47.8415 29.4604L47.0017 25.7412M19.1718 25.7048L21.0686 18.5041C21.7456 15.9341 24.8793 14.8097 27.3148 15.9511C29.1369 16.8051 31.2021 17.5276 33 17.5461C34.9537 17.5661 37.217 16.8066 39.1925 15.9137C41.6669 14.7954 44.8077 16.024 45.3984 18.64L47.0017 25.7412M19.1718 25.7048C14.1871 26.7403 11 28.3237 11 30.0983C11 33.2178 20.8497 35.7468 33 35.7468C45.1503 35.7468 55 33.2178 55 30.0983C55 28.3444 51.8868 26.7773 47.0017 25.7412M21.5214 43.2781C21.7397 42.2033 23.4345 42.0229 24.7098 42.0229C26.304 42.0229 29.8122 42.6505 29.8122 43.9057C29.8122 45.4655 27.6204 46.6565 25.6666 46.4162C23.1159 46.1024 21.3667 44.0399 21.5214 43.2781ZM44.798 43.2781C44.5797 42.2033 42.885 42.0229 41.6096 42.0229C40.0154 42.0229 36.5072 42.6505 36.5072 43.9057C36.5072 45.4655 38.699 46.6565 40.6528 46.4162C43.2035 46.1024 44.9527 44.0399 44.798 43.2781ZM33.2265 39.5124C38.9663 39.5124 43.4294 39.1989 47.8931 38.5712C49.8062 38.3022 50.8379 40.2318 50.125 42.3368C47.5743 49.868 39.2844 51.25 36.7337 50.1819C36.0143 49.8806 35.4835 49.3225 34.995 48.8089C34.4253 48.2099 33.9131 47.6714 33.2265 47.6714C32.5399 47.6714 32.0277 48.2099 31.458 48.8089C30.9695 49.3225 30.4386 49.8806 29.7192 50.1819C27.1685 51.25 18.8786 49.868 16.3279 42.3368C15.615 40.2318 16.6468 38.3022 18.5598 38.5712C23.0236 39.1989 27.4866 39.5124 33.2265 39.5124Z" stroke="#B20237" stroke-width="1.5" stroke-linecap="round"/>
</g>
<defs>
<clipPath id="clip0_3002_167">
<rect width="65" height="65" fill="white" transform="translate(0 0.5)"/>
</clipPath>
</defs>
</svg>
