<svg width="30" height="30" viewBox="0 0 30 30" fill="none" xmlns="http://www.w3.org/2000/svg">
<path fill-rule="evenodd" clip-rule="evenodd" d="M2.5 15C2.5 21.9036 8.09644 27.5 15 27.5C21.9036 27.5 27.5 21.9036 27.5 15C27.5 8.09644 21.9036 2.5 15 2.5C8.09644 2.5 2.5 8.09644 2.5 15ZM5 15C5 9.47715 9.47715 5 15 5C20.5228 5 25 9.47715 25 15C25 20.5228 20.5228 25 15 25C9.47715 25 5 20.5228 5 15ZM14.9998 7.1875C14.1472 7.1875 13.4657 7.89678 13.4998 8.74875L13.7811 15.7822C13.8073 16.4363 14.3452 16.9531 14.9998 16.9531C15.6545 16.9531 16.1924 16.4363 16.2186 15.7822L16.4999 8.74875C16.534 7.89678 15.8525 7.1875 14.9998 7.1875ZM13.2031 20.6641C13.2031 19.6932 13.9901 18.9062 14.9609 18.9062C15.9318 18.9062 16.7188 19.6932 16.7188 20.6641C16.7188 21.6349 15.9318 22.4219 14.9609 22.4219C13.9901 22.4219 13.2031 21.6349 13.2031 20.6641Z" fill="#B20237"/>
</svg>
