<svg width="24" height="24" viewBox="0 0 24 24" fill="none" xmlns="http://www.w3.org/2000/svg">
<path fill-rule="evenodd" clip-rule="evenodd" d="M4.5 22C3.11929 22 2 20.8807 2 19.5L2 17C2 16.4477 2.44771 16 3 16C3.55228 16 4 16.4477 4 17L4 19.5C4 19.7761 4.22386 20 4.5 20L7 20C7.55228 20 8 20.4477 8 21C8 21.5523 7.55228 22 7 22L4.5 22ZM4.5 2C3.11929 2 2 3.11929 2 4.5L2 7C2 7.55228 2.44771 8 3 8C3.55228 8 4 7.55228 4 7L4 4.5C4 4.22386 4.22386 4 4.5 4L7 4C7.55228 4 8 3.55228 8 3C8 2.44772 7.55228 2 7 2L4.5 2ZM22 19.5C22 20.8807 20.8807 22 19.5 22L17 22C16.4477 22 16 21.5523 16 21C16 20.4477 16.4477 20 17 20L19.5 20C19.7761 20 20 19.7761 20 19.5L20 17C20 16.4477 20.4477 16 21 16C21.5523 16 22 16.4477 22 17L22 19.5ZM19.5 2C20.8807 2 22 3.11929 22 4.5L22 7C22 7.55228 21.5523 8 21 8C20.4477 8 20 7.55228 20 7L20 4.5C20 4.22386 19.7761 4 19.5 4L17 4C16.4477 4 16 3.55228 16 3C16 2.44772 16.4477 2 17 2L19.5 2ZM11 21C11 21.5523 11.4477 22 12 22C12.5523 22 13 21.5523 13 21L13 3C13 2.44772 12.5523 2 12 2C11.4477 2 11 2.44772 11 3L11 21Z" fill="#0263B2"/>
</svg>
