<svg width="24" height="24" viewBox="0 0 24 24" fill="none" xmlns="http://www.w3.org/2000/svg">
<path fill-rule="evenodd" clip-rule="evenodd" d="M12 12C10.3431 12 9 13.3431 9 15V16.1429V19C9 19.5523 8.55228 20 8 20C7.44772 20 7 19.5523 7 19V16.1429V15L7.00012 14.9645C6.83678 14.9879 6.6698 15 6.5 15C6.38994 15 6.28108 14.9949 6.17361 14.985C6.11723 14.9949 6.05921 15 6 15H5.57143C4.70355 15 4 15.7036 4 16.5714V18C4 18.5523 3.55228 19 3 19C2.44772 19 2 18.5523 2 18V16.5714C2 15.3004 2.66396 14.1845 3.66396 13.5515C3.24626 12.9751 3 12.2663 3 11.5C3 9.567 4.567 8 6.5 8C7.04254 8 7.55625 8.12344 8.01457 8.34378C8.00492 8.23047 8 8.11581 8 8C8 5.79086 9.79086 4 12 4C14.2091 4 16 5.79086 16 8C16 8.11581 15.9951 8.23047 15.9854 8.34378C16.4438 8.12345 16.9575 8 17.5 8C19.433 8 21 9.567 21 11.5C21 12.2663 20.7537 12.9751 20.336 13.5515C21.336 14.1845 22 15.3004 22 16.5714V18C22 18.5523 21.5523 19 21 19C20.4477 19 20 18.5523 20 18V16.5714C20 15.7036 19.2964 15 18.4286 15H18C17.9408 15 17.8828 14.9949 17.8264 14.985C17.7189 14.9949 17.6101 15 17.5 15C17.3302 15 17.1632 14.9879 16.9999 14.9645L17 15V16.1429V19C17 19.5523 16.5523 20 16 20C15.4477 20 15 19.5523 15 19V16.1429V15C15 13.3431 13.6569 12 12 12ZM12 10C10.8954 10 10 9.10457 10 8C10 6.89543 10.8954 6 12 6C13.1046 6 14 6.89543 14 8C14 9.10457 13.1046 10 12 10ZM6.5 10C5.67157 10 5 10.6716 5 11.5C5 12.3284 5.67157 13 6.5 13C7.32843 13 8 12.3284 8 11.5C8 10.6716 7.32843 10 6.5 10ZM17.5 10C16.6716 10 16 10.6716 16 11.5C16 12.3284 16.6716 13 17.5 13C18.3284 13 19 12.3284 19 11.5C19 10.6716 18.3284 10 17.5 10Z" fill="#0263B2"/>
</svg>
