<svg width="18" height="18" viewBox="0 0 18 18" fill="none" xmlns="http://www.w3.org/2000/svg">
<path fill-rule="evenodd" clip-rule="evenodd" d="M1.5 9C1.5 13.1421 4.85786 16.5 9 16.5C13.1421 16.5 16.5 13.1421 16.5 9C16.5 4.85786 13.1421 1.5 9 1.5C4.85786 1.5 1.5 4.85786 1.5 9ZM12.5529 7.25679C12.8328 6.95145 12.8121 6.47703 12.5068 6.19713C12.2015 5.91724 11.727 5.93787 11.4471 6.24321L7.9019 10.1107L6.57617 8.51986C6.31099 8.20165 5.83807 8.15866 5.51986 8.42383C5.20165 8.68901 5.15866 9.16193 5.42383 9.48014L7.29883 11.7301C7.43737 11.8964 7.64096 11.9947 7.8573 11.9998C8.07364 12.0049 8.28164 11.9163 8.42787 11.7568L12.5529 7.25679Z" fill="#89C440"/>
</svg>
