<svg width="65" height="66" viewBox="0 0 65 66" fill="none" xmlns="http://www.w3.org/2000/svg">
<g clip-path="url(#clip0_355_5091)">
<rect x="5" y="5.5" width="55" height="55" rx="7" fill="#B20237"/>
<rect x="1" y="1.5" width="63" height="63" rx="10" stroke="#B20237" stroke-width="2"/>
<path d="M24.5195 24.9836C23.4702 26.8333 23.4618 28.7987 23.3295 30.0034C23.0651 29.8696 22.2983 28.9191 21.3463 27.7947C20.3944 26.6703 19.1648 26.59 17.7765 27.7947C17.5121 26.59 17.6337 22.3186 19.1648 19.3614C21.4389 14.969 24.7098 13.2705 29.4775 12.1329C35.8251 10.6184 41.3487 11.6941 45.5416 16.7512C49.283 21.2635 47.3964 30.8447 48.1897 31.0455C49.4767 31.3712 50.4116 34.0489 49.8167 36.2576C49.3023 38.1669 47.4883 40.043 46.5628 40.4446C46.3644 40.98 46.0669 42.4314 45.5416 43.858C44.1639 47.6002 42.1275 49.4991 38.6004 51.2873C35.1129 53.0554 29.8742 52.2913 28.6842 52.4921C27.4313 52.7035 26.1061 54.5 26.1061 54.5C25.0483 54.4331 22.26 54.2903 19.9581 53.496C17.8923 52.7833 15.6611 51.4881 15 50.8857C15.8594 48.3424 19.5266 45.3094 20.3547 40.043C20.7302 37.655 20.1564 33.2161 18.3715 30.6058C17.965 30.0114 19.0732 29.604 19.7597 29.8026C22.0525 30.4658 22.8126 33.5937 23.2684 36.2463C23.394 36.977 24.235 37.3327 24.846 36.9128C26.2126 35.9736 28.3817 34.5289 30.0725 33.6177C31.8312 32.6698 34.386 31.591 35.7921 31.0167C36.3645 30.783 37.0143 31.0487 37.2675 31.6127C37.5538 32.2503 37.2166 32.9965 36.5563 33.2253C35.6706 33.5323 34.4935 33.9742 33.6423 34.4208C32.5031 35.0186 31.0152 36.1139 30.3807 36.5941C30.1998 36.7311 30.1445 36.9762 30.245 37.1797C30.3668 37.4262 30.6704 37.5205 30.9113 37.3881C31.7298 36.9385 33.517 35.9779 34.8322 35.4248C36.0305 34.9208 37.7291 34.3799 38.7399 34.0719C39.2327 33.9218 39.7578 34.1543 39.986 34.6162C40.2909 35.2336 39.9405 35.9767 39.2743 36.1508C38.2568 36.4169 36.8505 36.8161 35.8239 37.2319C34.4581 37.785 32.6473 38.8197 31.7751 39.3344C31.4889 39.5032 31.3984 39.8708 31.5678 40.1567C31.7309 40.4318 32.0782 40.5345 32.3651 40.3934C33.213 39.9765 34.9494 39.1394 36.2205 38.6374C37.2526 38.2299 38.6899 37.7621 39.5778 37.4822C40.0384 37.3369 40.5313 37.5645 40.7254 38.0068C40.9626 38.5472 40.6591 39.1736 40.0928 39.3394C39.1937 39.6027 37.9213 40.0102 37.0138 40.4446C35.8726 40.9908 34.4047 42.0121 33.6843 42.5321C33.4326 42.7137 33.3653 43.0559 33.5235 43.3229C33.6976 43.6166 34.0794 43.7107 34.3734 43.5372C34.989 43.1737 36.0193 42.5885 36.8155 42.2517C37.5389 41.9457 38.5459 41.6431 39.23 41.4514C39.6607 41.3308 40.1063 41.5655 40.2617 41.9849C40.4364 42.4568 40.1811 42.9804 39.7057 43.1455C38.2561 43.6491 35.3524 44.7551 33.6423 46.0667C31.8962 47.406 29.62 50.2342 29.62 50.2342C29.62 50.2342 31.8464 50.3275 32.849 50.2342C36.9191 49.8556 39.4532 48.9352 42.0073 45.7045C43.922 43.2827 44.55 38.6374 44.9467 38.6374C45.3433 38.6374 45.74 39.2398 47.1282 37.2319C48.5847 35.1253 48.3182 33.2161 47.1282 32.8145C46.2969 32.534 45.5417 33.2161 45.5417 34.4208C45.5416 35.0333 45.5416 35.8264 44.55 35.8264C43.5584 35.8264 43.7567 35.0232 43.7567 33.0153C43.7567 31.0074 42.4808 28.9433 40.7819 27.3931C38.0957 24.9421 35.3239 26.7733 31.8574 26.1884C29.4775 25.7868 27.0977 23.5781 26.701 22.3733C26.701 22.3733 25.0981 23.9637 24.5195 24.9836Z" fill="white" stroke="#B20237"/>
</g>
<defs>
<clipPath id="clip0_355_5091">
<rect width="65" height="65" fill="white" transform="translate(0 0.5)"/>
</clipPath>
</defs>
</svg>
