<svg width="65" height="66" viewBox="0 0 65 66" fill="none" xmlns="http://www.w3.org/2000/svg">
<g clip-path="url(#clip0_3002_777)">
<rect x="5" y="5.5" width="55" height="55" rx="7" fill="#B20237"/>
<rect x="1" y="1.5" width="63" height="63" rx="10" stroke="#B20237" stroke-width="2"/>
<path d="M15 48.4808C15 48.7168 15.0819 48.9433 15.2323 49.1538C15.7929 49.9381 17.3054 50.5 19.0833 50.5C20.8612 50.5 22.3737 49.9381 22.9342 49.1538C23.0847 48.9433 23.1665 48.7168 23.1665 48.4808V47.8077V45.7885C23.1665 46.3056 22.7734 46.7774 22.1268 47.1346C21.3791 47.5477 20.2926 47.8077 19.0833 47.8077C17.8739 47.8077 16.7874 47.5477 16.0397 47.1346C15.3932 46.7774 15 46.3056 15 45.7885V48.4808Z" fill="white"/>
<path d="M36.0969 35.7036V31.6539C38.8191 31.6539 40.8607 31.3174 40.8607 33.6731C40.8607 35.7027 39.3453 35.7339 36.0969 35.7036Z" fill="white"/>
<path d="M36.4372 22.9038H36.7586H37.458H38.7815C40.0091 22.9038 41.0848 22.0913 41.4078 20.9199L42.6502 16.4146C42.7345 16.1089 42.3695 15.8474 42.0908 16.0037C41.3857 16.3989 40.3474 16.8778 39.4996 16.8462C38.1918 16.7973 37.7459 15.5 36.4372 15.5C35.1284 15.5 34.6826 16.7973 33.3747 16.8462C32.527 16.8778 31.4886 16.3989 30.7835 16.0037C30.5048 15.8474 30.1399 16.1089 30.2242 16.4146L31.4666 20.9199C31.7896 22.0912 32.8653 22.9038 34.0928 22.9038H35.4164H36.4372Z" fill="white"/>
<path fill-rule="evenodd" clip-rule="evenodd" d="M36.7586 22.9038H36.4372C36.0756 22.9038 35.7173 22.9181 35.3628 22.9462C33.1446 23.1218 31.0748 23.8364 29.2915 24.9607V37.9817C30.5119 38.3308 31.3331 38.9834 31.3331 39.7308V47.1346H43.1943C47.1012 47.1346 50.206 43.8886 49.9893 40.0305L49.7078 35.0192C49.3395 28.462 44.0365 23.2812 37.4829 22.9236C37.2431 22.9105 37.0016 22.9038 36.7586 22.9038ZM36.0969 35.7036V31.6539C38.8191 31.6539 40.8607 31.3174 40.8607 33.6731C40.8607 35.7027 39.3453 35.7339 36.0969 35.7036Z" fill="white"/>
<path d="M21.1249 26.2692C23.38 26.2692 25.2082 27.1733 25.2082 28.2885V37.9817C25.8088 37.8099 26.5061 37.7115 27.2498 37.7115C27.9936 37.7115 28.6909 37.8099 29.2915 37.9817V24.9607V19.5385C29.2915 20.6537 27.4633 21.5577 25.2082 21.5577C22.9531 21.5577 21.1249 20.6537 21.1249 19.5385V26.2692Z" fill="white"/>
<path d="M17.0416 28.2885V43.7692H19.0833C19.827 43.7692 20.5243 43.8676 21.1249 44.0394C22.3454 44.3885 23.1665 45.0411 23.1665 45.7885V43.7692V39.7308C23.1665 38.9834 23.9877 38.3308 25.2082 37.9817V28.2885C25.2082 29.4037 23.38 30.3077 21.1249 30.3077C18.8698 30.3077 17.0416 29.4037 17.0416 28.2885Z" fill="white"/>
<path d="M21.1249 30.3077C23.38 30.3077 25.2082 29.4037 25.2082 28.2885C25.2082 27.1733 23.38 26.2692 21.1249 26.2692C18.8698 26.2692 17.0416 27.1733 17.0416 28.2885C17.0416 29.4037 18.8698 30.3077 21.1249 30.3077Z" fill="white"/>
<path d="M25.2082 21.5577C27.4633 21.5577 29.2915 20.6537 29.2915 19.5385C29.2915 18.4233 27.4633 17.5192 25.2082 17.5192C22.9531 17.5192 21.1249 18.4233 21.1249 19.5385C21.1249 20.6537 22.9531 21.5577 25.2082 21.5577Z" fill="white"/>
<path d="M23.1665 45.7885V47.8077C23.1665 48.5512 24.9947 49.1538 27.2498 49.1538C29.5049 49.1538 31.3331 48.5512 31.3331 47.8077V47.1346V39.7308C31.3331 40.4782 30.5119 41.1307 29.2915 41.4799C28.6909 41.6517 27.9936 41.75 27.2498 41.75C26.5061 41.75 25.8088 41.6517 25.2082 41.4799C23.9877 41.1307 23.1665 40.4782 23.1665 39.7308V43.7692V45.7885Z" fill="white"/>
<path d="M25.2082 37.9817C23.9877 38.3308 23.1665 38.9834 23.1665 39.7308C23.1665 40.4782 23.9877 41.1307 25.2082 41.4799C25.8088 41.6517 26.5061 41.75 27.2498 41.75C27.9936 41.75 28.6909 41.6517 29.2915 41.4799C30.5119 41.1307 31.3331 40.4782 31.3331 39.7308C31.3331 38.9834 30.5119 38.3308 29.2915 37.9817C28.6909 37.8099 27.9936 37.7115 27.2498 37.7115C26.5061 37.7115 25.8088 37.8099 25.2082 37.9817Z" fill="white"/>
<path d="M19.0833 43.7692C16.8281 43.7692 15 44.6733 15 45.7885C15 46.3056 15.3932 46.7774 16.0397 47.1346C16.7874 47.5477 17.8739 47.8077 19.0833 47.8077C20.2926 47.8077 21.3791 47.5477 22.1268 47.1346C22.7734 46.7774 23.1665 46.3056 23.1665 45.7885C23.1665 45.0411 22.3454 44.3885 21.1249 44.0394C20.5243 43.8676 19.827 43.7692 19.0833 43.7692Z" fill="white"/>
<path d="M17.0416 28.2885V43.7692H19.0833M17.0416 28.2885C17.0416 29.4037 18.8698 30.3077 21.1249 30.3077C23.38 30.3077 25.2082 29.4037 25.2082 28.2885M17.0416 28.2885C17.0416 27.1733 18.8698 26.2692 21.1249 26.2692M25.2082 28.2885C25.2082 27.1733 23.38 26.2692 21.1249 26.2692M25.2082 28.2885V37.9817M21.1249 26.2692V19.5385M21.1249 19.5385C21.1249 20.6537 22.9531 21.5577 25.2082 21.5577C27.4633 21.5577 29.2915 20.6537 29.2915 19.5385M21.1249 19.5385C21.1249 18.4233 22.9531 17.5192 25.2082 17.5192C27.4633 17.5192 29.2915 18.4233 29.2915 19.5385M29.2915 19.5385V24.9607M36.7586 22.9038H36.4372M36.7586 22.9038C37.0016 22.9038 37.2431 22.9105 37.4829 22.9236M36.7586 22.9038H37.458M36.4372 22.9038V25.5962M36.4372 22.9038C36.0756 22.9038 35.7173 22.9181 35.3628 22.9462M36.4372 22.9038H35.4164M34.0928 22.9038H38.7815M34.0928 22.9038C32.8653 22.9038 31.7896 22.0913 31.4666 20.9199L30.2242 16.4146C30.1399 16.1089 30.5048 15.8474 30.7835 16.0037C31.4886 16.3989 32.527 16.8778 33.3747 16.8462C34.6826 16.7973 35.1284 15.5 36.4372 15.5C37.7459 15.5 38.1918 16.7973 39.4996 16.8462C40.3474 16.8778 41.3857 16.3989 42.0908 16.0037C42.3695 15.8474 42.7345 16.1089 42.6502 16.4146L41.4078 20.9199C41.0848 22.0913 40.0091 22.9038 38.7815 22.9038M34.0928 22.9038H35.4164M38.7815 22.9038H37.458M35.4164 22.9038L35.3628 22.9462M35.4164 22.9038L35.6404 22.6739C35.6404 22.6739 35.0402 21.8155 34.7358 21.2212C34.4125 20.5898 34.0553 19.5385 34.0553 19.5385M32.0136 25.5962L35.3628 22.9462M37.458 22.9038L37.4829 22.9236M37.458 22.9038L37.4579 22.6739C37.4579 22.6739 38.1662 21.839 38.4788 21.2212C38.7921 20.602 39.0431 19.5385 39.0431 19.5385M40.8607 25.5962L37.4829 22.9236M15 45.7885C15 44.6733 16.8281 43.7692 19.0833 43.7692M15 45.7885V48.4808C15 48.7168 15.0819 48.9433 15.2323 49.1538C15.7929 49.9381 17.3054 50.5 19.0833 50.5C20.8612 50.5 22.3737 49.9381 22.9342 49.1538C23.0847 48.9433 23.1665 48.7168 23.1665 48.4808M15 45.7885C15 46.3056 15.3932 46.7774 16.0397 47.1346C16.7874 47.5477 17.8739 47.8077 19.0833 47.8077C20.2926 47.8077 21.3791 47.5477 22.1268 47.1346C22.7734 46.7774 23.1665 46.3056 23.1665 45.7885M19.0833 43.7692C19.827 43.7692 20.5243 43.8676 21.1249 44.0394C22.3454 44.3885 23.1665 45.0411 23.1665 45.7885M23.1665 45.7885V48.4808M23.1665 45.7885V43.7692M23.1665 45.7885V47.8077M23.1665 48.4808V47.8077M23.1665 39.7308C23.1665 38.9834 23.9877 38.3308 25.2082 37.9817M23.1665 39.7308C23.1665 40.4782 23.9877 41.1307 25.2082 41.4799C25.8088 41.6517 26.5061 41.75 27.2498 41.75C27.9936 41.75 28.6909 41.6517 29.2915 41.4799C30.5119 41.1307 31.3331 40.4782 31.3331 39.7308M23.1665 39.7308V43.7692M31.3331 39.7308C31.3331 38.9834 30.5119 38.3308 29.2915 37.9817M31.3331 39.7308V47.1346M23.1665 47.8077C23.1665 48.5512 24.9947 49.1538 27.2498 49.1538C29.5049 49.1538 31.3331 48.5512 31.3331 47.8077V47.1346M23.1665 47.8077V43.7692M25.2082 37.9817C25.8088 37.8099 26.5061 37.7115 27.2498 37.7115C27.9936 37.7115 28.6909 37.8099 29.2915 37.9817M29.2915 37.9817V24.9607M29.2915 24.9607C31.0748 23.8364 33.1446 23.1218 35.3628 22.9462M31.3331 47.1346H43.1943C47.1012 47.1346 50.206 43.8886 49.9893 40.0305L49.7078 35.0192C49.3395 28.462 44.0365 23.2812 37.4829 22.9236M49.0273 23.2404C44.2635 21.2212 41.5413 22.5673 39.4996 22.9039C41.5413 22.5673 46.1009 23.5096 48.0065 25.9327M48.0065 39.3942C48.0065 39.3942 47.8719 41.9595 46.6454 43.0962C45.3516 44.295 42.2218 44.4423 42.2218 44.4423M36.0969 35.7036V31.6539C38.8191 31.6539 40.8607 31.3174 40.8607 33.6731C40.8607 35.7027 39.3453 35.7339 36.0969 35.7036ZM36.0969 35.7036V39.0577M36.0969 35.7036C35.5748 35.6988 34.7358 35.6923 34.7358 35.6923M37.458 37.7115H34.7358" stroke="#B20237" stroke-linecap="round"/>
</g>
<defs>
<clipPath id="clip0_3002_777">
<rect width="65" height="65" fill="white" transform="translate(0 0.5)"/>
</clipPath>
</defs>
</svg>
