<svg width="2518" height="1508" viewBox="0 0 2518 1508" fill="none" xmlns="http://www.w3.org/2000/svg">
<path d="M1876 1465.41C1876 1465.41 2392.68 1437.33 2480.5 1236.5C2611.07 937.897 2364.6 537.17 2180.5 580.5C1779.35 674.917 2134.22 -157.375 1490.43 55.2079C1309.4 114.981 820.29 -240.107 683.874 329.252C651.432 464.64 536.506 479.554 369.676 565.464C43.1619 733.597 192.458 1462.55 425.768 1465.41C659.069 1468.28 1876 1465.41 1876 1465.41Z" fill="#F2F8FC"/>
<path d="M2514.91 1467H176.086C174.938 1467 174 1465.65 174 1464C174 1462.35 174.938 1461 176.086 1461H2514.91C2516.06 1461 2517 1462.35 2517 1464C2517.01 1465.65 2516.06 1467 2514.91 1467Z" fill="#283250"/>
<path d="M452.411 434.766C452.11 435.061 451.759 435.453 451.352 435.899C435.439 453.195 325.397 560.311 38.0668 571.702C38.0507 582.818 38.1266 593.83 38.3083 604.691C38.3992 610.122 38.4863 615.531 38.6088 620.89C38.72 626.185 38.8702 631.45 39.0381 636.691L39.044 636.977C39.2156 642.239 39.3798 647.458 39.6081 652.666C39.815 657.878 40.0396 663.065 40.2856 668.248C40.5203 673.366 40.7941 678.456 41.0855 683.521L41.0839 683.764C41.393 688.803 41.6769 693.825 42.0213 698.814C42.3266 703.833 42.6924 708.818 43.0619 713.825C43.4239 718.789 43.8036 723.728 44.2223 728.638C44.6121 733.509 45.0485 738.394 45.4811 743.258C45.7922 746.797 46.1209 750.312 46.4711 753.823C46.7377 756.731 47.0219 759.614 47.349 762.489C47.5798 764.941 47.857 767.406 48.1306 769.85C48.266 771.127 48.4052 772.426 48.5621 773.699C49.0171 777.809 49.4646 781.876 49.9549 785.936C50.4725 790.278 50.9939 794.64 51.5291 798.957C51.6324 799.799 51.7496 800.594 51.8529 801.436C52.2864 804.668 52.6949 807.881 53.1209 811.07C53.4774 813.61 53.7835 816.114 54.179 818.625C55.3094 826.718 56.5029 834.668 57.7531 842.563C58.322 846.19 58.8872 849.796 59.4914 853.373C60.1903 857.616 60.8994 861.792 61.6299 865.964C61.6898 866.306 61.7422 866.606 61.8022 866.948C62.539 871.031 63.2471 875.074 63.9941 879.089C64.5822 882.448 65.2056 885.756 65.8718 889.058C66.3915 891.899 66.9539 894.734 67.5302 897.522C67.7239 898.502 67.9213 899.503 68.0936 900.488C68.6961 903.425 69.2913 906.32 69.8863 909.215C70.544 912.341 71.1903 915.403 71.8405 918.487C72.5746 921.798 73.3087 925.109 74.0568 928.374C74.906 932.216 75.7691 936.012 76.6787 939.822C76.76 940.161 76.8451 940.521 76.9264 940.859C77.8034 944.609 78.712 948.286 79.5991 951.968C80.5628 955.834 81.5051 959.705 82.5003 963.5C83.4779 967.32 84.473 971.114 85.4822 974.863C86.4736 978.636 87.4789 982.363 88.5233 986.061C89.5201 989.613 90.5057 993.101 91.5127 996.585C91.6304 997.005 91.7695 997.422 91.8658 997.846C92.8577 1001.24 93.8422 1004.6 94.8481 1007.95C95.9091 1011.49 96.9877 1015.01 98.0914 1018.54C98.1278 1018.62 98.1428 1018.71 98.1829 1018.81C99.2754 1022.28 100.343 1025.73 101.474 1029.17C102.581 1032.6 103.691 1036.04 104.862 1039.45C104.898 1039.53 104.913 1039.62 104.932 1039.73C106.066 1043.06 107.193 1046.34 108.319 1049.63C108.352 1049.69 108.381 1049.73 108.371 1049.8C109.53 1053.14 110.703 1056.44 111.898 1059.74C113.075 1063.06 114.291 1066.36 115.504 1069.63C116.979 1073.65 118.468 1077.62 119.993 1081.54C120.952 1084 121.89 1086.46 122.867 1088.89C124.089 1091.96 125.299 1094.97 126.509 1097.98C126.666 1098.37 126.844 1098.75 127.001 1099.15C128.134 1101.97 129.311 1104.78 130.48 1107.56C131.744 1110.62 133.043 1113.63 134.368 1116.67C137.043 1122.88 139.739 1128.96 142.506 1134.93C143.756 1137.67 145.021 1140.36 146.286 1143.05C147.616 1145.86 148.942 1148.64 150.286 1151.41C151.259 1153.44 152.251 1155.45 153.246 1157.48C154.216 1159.5 155.199 1161.46 156.23 1163.44C157.01 1165 157.808 1166.54 158.61 1168.1C159.99 1170.81 161.365 1173.5 162.754 1176.15C165.579 1181.45 168.415 1186.69 171.256 1191.84C172.677 1194.41 174.094 1196.96 175.547 1199.47C176.982 1201.99 178.413 1204.5 179.857 1206.96C183.819 1213.72 187.798 1220.32 191.836 1226.76C193.033 1228.69 194.249 1230.59 195.464 1232.49C197.201 1235.23 198.955 1237.95 200.726 1240.64C202.108 1242.73 203.489 1244.83 204.909 1246.89C212.457 1258.14 220.112 1268.86 227.776 1279.01C229.296 1281.01 230.786 1282.98 232.32 1284.94C235.911 1289.58 239.526 1294.11 243.151 1298.56C244.396 1300.13 245.701 1301.67 246.985 1303.21C248.182 1304.63 249.358 1306.06 250.552 1307.46C251.944 1309.11 253.332 1310.74 254.691 1312.33C257.892 1316.01 261.031 1319.58 264.224 1323.08C265.298 1324.3 266.415 1325.52 267.503 1326.69C270.937 1330.44 274.377 1334.09 277.823 1337.65C279.041 1338.94 280.255 1340.2 281.486 1341.44C289.538 1349.65 297.47 1357.3 305.317 1364.46C306.76 1365.77 308.228 1367.1 309.688 1368.39C317.238 1375.12 324.646 1381.41 331.907 1387.24C334.214 1389.08 336.518 1390.9 338.793 1392.69C338.994 1392.83 339.174 1392.97 339.379 1393.14C340.73 1394.18 342.106 1395.24 343.454 1396.26C351.596 1402.46 359.48 1408.07 367.053 1413.17C368.303 1414 369.552 1414.84 370.798 1415.66C373.272 1417.32 375.709 1418.9 378.136 1420.42C380.444 1421.89 382.694 1423.28 384.894 1424.64C385.012 1424.68 385.117 1424.78 385.239 1424.84C387.431 1426.16 389.577 1427.46 391.669 1428.7C395.279 1430.8 398.784 1432.81 402.152 1434.67C403.099 1435.17 404.007 1435.69 404.954 1436.19C411.069 1439.5 416.752 1442.37 421.908 1444.86C423.471 1445.6 424.987 1446.33 426.449 1447C430.765 1448.98 434.653 1450.66 438.05 1452.05C439.078 1452.5 440.049 1452.89 440.995 1453.25C443.08 1454.08 444.928 1454.81 446.529 1455.39C446.884 1455.53 447.256 1455.64 447.586 1455.76C447.94 1455.89 448.274 1456.03 448.625 1456.15C452.346 1457.5 454.365 1458.08 454.365 1458.08C471.271 1449.1 487.515 1439.61 503.099 1429.63C601.479 1366.61 673.638 1284.42 726.419 1194.59C726.553 1194.34 726.711 1194.12 726.82 1193.86C840.342 1000.2 863.646 771.225 864.621 622.147C864.707 605.639 864.548 590.121 864.209 575.715C570.629 560.857 463.805 447.831 452.411 434.766Z" fill="#588FE0"/>
<path d="M827.814 650.708C826.934 786.605 805.689 995.351 702.183 1171.91C702.071 1172.15 701.951 1172.34 701.813 1172.57C653.706 1254.46 587.926 1329.38 498.231 1386.84C484.037 1395.95 469.213 1404.6 453.801 1412.79C453.801 1412.79 451.968 1412.28 448.576 1411.04C448.272 1410.94 447.964 1410.82 447.631 1410.68C447.326 1410.58 447 1410.48 446.667 1410.34C445.206 1409.8 443.522 1409.12 441.627 1408.38C440.774 1408.04 439.875 1407.69 438.943 1407.28C435.855 1406.01 432.3 1404.47 428.368 1402.67C427.049 1402.06 425.651 1401.38 424.235 1400.73C419.517 1398.47 414.339 1395.84 408.762 1392.83C407.908 1392.36 407.058 1391.92 406.204 1391.45C403.13 1389.76 399.945 1387.93 396.654 1386.02C394.76 1384.9 392.811 1383.72 390.791 1382.5C390.694 1382.45 390.593 1382.38 390.493 1382.31C388.49 1381.08 386.437 1379.8 384.33 1378.47C382.126 1377.1 379.89 1375.66 377.642 1374.16C376.497 1373.41 375.369 1372.63 374.224 1371.89C367.327 1367.25 360.147 1362.14 352.719 1356.49C351.476 1355.56 350.226 1354.59 349.004 1353.66C348.824 1353.51 348.644 1353.37 348.468 1353.24C346.398 1351.62 344.299 1349.96 342.197 1348.28C335.597 1342.95 328.84 1337.23 321.945 1331.1C320.635 1329.91 319.279 1328.72 317.966 1327.52C310.807 1321.01 303.565 1314.03 296.233 1306.54C295.11 1305.41 294.004 1304.26 292.895 1303.08C289.769 1299.84 286.631 1296.53 283.497 1293.11C282.517 1292.05 281.508 1290.94 280.517 1289.82C277.598 1286.62 274.732 1283.35 271.809 1280.01C270.562 1278.55 269.31 1277.07 268.034 1275.57C266.949 1274.29 265.863 1273 264.774 1271.69C263.602 1270.29 262.43 1268.88 261.276 1267.45C257.964 1263.4 254.681 1259.26 251.404 1255.03C250.011 1253.24 248.639 1251.45 247.26 1249.62C240.261 1240.37 233.3 1230.59 226.413 1220.35C225.134 1218.46 223.872 1216.54 222.613 1214.64C220.994 1212.19 219.413 1209.71 217.828 1207.21C216.711 1205.49 215.611 1203.74 214.532 1201.99C210.86 1196.13 207.226 1190.1 203.611 1183.95C202.293 1181.71 200.985 1179.4 199.681 1177.11C198.377 1174.83 197.065 1172.5 195.771 1170.15C193.187 1165.46 190.587 1160.69 188.019 1155.85C186.757 1153.42 185.491 1150.98 184.242 1148.51C183.505 1147.07 182.776 1145.68 182.086 1144.25C181.154 1142.45 180.246 1140.67 179.371 1138.82C178.456 1136.99 177.559 1135.14 176.683 1133.29C175.448 1130.77 174.235 1128.25 173.035 1125.68C171.88 1123.24 170.724 1120.8 169.583 1118.31C167.064 1112.86 164.615 1107.31 162.169 1101.65C160.961 1098.91 159.774 1096.16 158.619 1093.35C157.56 1090.82 156.492 1088.25 155.446 1085.68C155.297 1085.33 155.144 1084.96 154.995 1084.61C153.901 1081.89 152.779 1079.13 151.67 1076.33C150.795 1074.1 149.941 1071.87 149.062 1069.62C147.683 1066.02 146.321 1062.4 144.974 1058.73C143.878 1055.75 142.757 1052.75 141.697 1049.72C140.619 1046.71 139.541 1043.7 138.477 1040.64C138.469 1040.6 138.458 1040.54 138.429 1040.5C137.397 1037.5 136.362 1034.49 135.348 1031.47C135.33 1031.36 135.297 1031.3 135.282 1031.21C134.232 1028.11 133.199 1024.99 132.209 1021.85C131.177 1018.72 130.205 1015.56 129.211 1012.41C129.192 1012.3 129.16 1012.24 129.145 1012.16C128.14 1008.94 127.16 1005.73 126.198 1002.51C125.266 999.45 124.377 996.387 123.48 993.28C123.392 992.899 123.26 992.525 123.15 992.148C122.217 988.959 121.33 985.785 120.432 982.546C119.49 979.183 118.563 975.773 117.653 972.338C116.725 968.929 115.832 965.469 114.936 961.987C114.044 958.527 113.165 955.021 112.3 951.467C111.469 948.107 110.66 944.743 109.864 941.332C109.79 941.036 109.709 940.698 109.635 940.402C108.811 936.952 108.025 933.473 107.236 929.973C106.562 927.004 105.901 923.989 105.216 920.955C104.615 918.15 104.017 915.366 103.429 912.514C102.879 909.876 102.325 907.217 101.793 904.554C101.614 903.659 101.453 902.739 101.278 901.865C100.764 899.309 100.229 896.757 99.7722 894.147C99.1799 891.141 98.6051 888.111 98.0732 885.073C97.3861 881.4 96.7418 877.721 96.0686 874.002C96.0161 873.702 95.9674 873.424 95.9112 873.103C95.2482 869.316 94.6028 865.504 93.9675 861.624C93.4195 858.369 92.9106 855.084 92.3979 851.778C91.2713 844.588 90.1763 837.327 89.1482 829.944C88.8115 827.643 88.5 825.36 88.1848 823.056C87.786 820.149 87.4301 817.235 87.0238 814.285C86.9355 813.528 86.8258 812.776 86.7375 812.02C86.2445 808.071 85.7478 804.101 85.2976 800.144C84.8672 796.427 84.4369 792.709 84.0279 788.988C83.8898 787.822 83.7517 786.655 83.635 785.485C83.3989 783.255 83.1377 781.008 82.923 778.774C82.6409 776.155 82.355 773.515 82.1333 770.864C81.8142 767.656 81.5203 764.466 81.2403 761.229C80.8398 756.801 80.4356 752.352 80.0779 747.916C79.6913 743.441 79.3652 738.934 79.0139 734.409C78.6802 729.859 78.3466 725.309 78.0734 720.726C77.7612 716.172 77.5131 711.607 77.2362 707.003L77.2415 706.781C76.9822 702.152 76.7229 697.523 76.5203 692.839C76.2888 688.117 76.0787 683.391 75.9076 678.636C75.6938 673.888 75.5442 669.13 75.3871 664.328L75.3849 664.064C75.2315 659.284 75.0957 654.478 74.999 649.644C74.8734 644.771 74.8008 639.822 74.7067 634.877C74.54 624.984 74.4791 614.939 74.4927 604.816C336.439 594.408 436.763 496.777 451.268 481.007C451.661 480.607 451.951 480.248 452.234 479.978C462.634 491.894 560.013 594.931 827.511 608.425C827.75 621.503 827.894 635.678 827.814 650.708Z" fill="#AFCDFB"/>
<path d="M453.113 478.832L448.597 1411.04C446.738 1410.37 444.403 1409.5 441.652 1408.39C440.799 1408.06 439.9 1407.71 438.968 1407.3C435.88 1406.03 432.325 1404.49 428.393 1402.69C427.074 1402.08 425.675 1401.4 424.259 1400.74C419.542 1398.48 414.364 1395.86 408.786 1392.85C407.933 1392.38 407.083 1391.93 406.229 1391.47C403.155 1389.78 399.969 1387.95 396.679 1386.04C394.784 1384.91 392.836 1383.73 390.815 1382.52C390.719 1382.47 390.618 1382.4 390.517 1382.33C388.515 1381.09 386.462 1379.82 384.355 1378.49C382.151 1377.11 379.915 1375.68 377.667 1374.17C376.522 1373.43 375.394 1372.65 374.249 1371.91C367.351 1367.27 360.171 1362.15 352.744 1356.51C351.501 1355.58 350.25 1354.61 349.028 1353.68C348.849 1353.53 348.669 1353.39 348.493 1353.26C346.423 1351.64 344.324 1349.98 342.221 1348.3C335.621 1342.97 328.865 1337.25 321.969 1331.11C320.66 1329.93 319.304 1328.74 317.99 1327.53C310.831 1321.03 303.589 1314.05 296.258 1306.55C295.134 1305.43 294.029 1304.28 292.919 1303.1C289.793 1299.86 286.656 1296.55 283.521 1293.13C282.541 1292.06 281.532 1290.96 280.541 1289.84C277.623 1286.64 274.757 1283.37 271.834 1280.03C270.586 1278.57 269.335 1277.09 268.059 1275.59C266.973 1274.31 265.888 1273.02 264.799 1271.71C263.627 1270.31 262.455 1268.9 261.3 1267.47C257.989 1263.42 254.706 1259.28 251.429 1255.04C250.036 1253.26 248.664 1251.47 247.285 1249.64C240.285 1240.39 233.324 1230.61 226.438 1220.37C225.158 1218.47 223.896 1216.56 222.638 1214.66C221.018 1212.21 219.437 1209.73 217.853 1207.23C216.735 1205.51 215.636 1203.76 214.557 1202.01C210.885 1196.14 207.25 1190.12 203.636 1183.96C202.318 1181.72 201.01 1179.42 199.706 1177.13C198.401 1174.85 197.09 1172.52 195.796 1170.17C193.211 1165.48 190.612 1160.71 188.044 1155.87C186.782 1153.44 185.515 1151 184.267 1148.52C183.53 1147.09 182.801 1145.69 182.111 1144.27C181.178 1142.47 180.271 1140.69 179.395 1138.84C178.48 1137.01 177.583 1135.16 176.708 1133.31C175.473 1130.79 174.259 1128.27 173.06 1125.7C171.904 1123.26 170.749 1120.81 169.607 1118.32C167.088 1112.88 164.639 1107.33 162.194 1101.67C160.986 1098.93 159.799 1096.18 158.644 1093.36C157.584 1090.84 156.517 1088.27 155.471 1085.69C155.322 1085.35 155.169 1084.98 155.019 1084.63C153.926 1081.91 152.803 1079.15 151.695 1076.34C150.82 1074.12 149.966 1071.88 149.087 1069.63C147.708 1066.04 146.346 1062.42 144.998 1058.75C143.903 1055.77 142.782 1052.77 141.721 1049.73C140.643 1046.73 139.565 1043.72 138.501 1040.66C138.494 1040.62 138.482 1040.55 138.454 1040.52C137.422 1037.52 136.387 1034.5 135.373 1031.48C135.354 1031.38 135.322 1031.32 135.307 1031.23C134.256 1028.13 133.224 1025 132.234 1021.87C131.201 1018.74 130.229 1015.58 129.236 1012.43C129.217 1012.32 129.184 1012.26 129.169 1012.17C128.165 1008.95 127.185 1005.75 126.223 1002.52C125.291 999.469 124.402 996.405 123.505 993.299C123.416 992.917 123.284 992.543 123.174 992.166C122.241 988.977 121.355 985.803 120.457 982.564C119.515 979.201 118.587 975.791 117.677 972.357C116.749 968.947 115.857 965.487 114.961 962.005C114.068 958.545 113.19 955.039 112.325 951.486C111.494 948.125 110.684 944.761 109.889 941.35C109.815 941.054 109.734 940.716 109.66 940.42C108.835 936.97 108.05 933.492 107.26 929.991C106.586 927.022 105.926 924.007 105.24 920.974C104.639 918.168 104.041 915.384 103.454 912.532C102.904 909.894 102.35 907.235 101.817 904.572C101.639 903.677 101.478 902.757 101.303 901.884C100.789 899.327 100.254 896.775 99.7968 894.165C99.2044 891.16 98.6297 888.129 98.0978 885.091C97.4107 881.419 96.7664 877.739 96.0932 874.02C96.0407 873.72 95.992 873.442 95.9358 873.121C95.2728 869.334 94.6274 865.522 93.9921 861.643C93.4441 858.387 92.9352 855.102 92.4225 851.796C91.2959 844.607 90.2009 837.345 89.1727 829.962C88.8361 827.661 88.5246 825.379 88.2094 823.074C87.8106 820.167 87.4546 817.253 87.0484 814.303C86.9601 813.547 86.8504 812.794 86.762 812.038C86.2691 808.089 85.7724 804.118 85.3222 800.162C84.8918 796.445 84.4615 792.728 84.0525 789.007C83.9144 787.84 83.7762 786.673 83.6595 785.503C83.4234 783.273 83.1623 781.026 82.9476 778.792C82.6655 776.173 82.3796 773.533 82.1579 770.882C81.8388 767.674 81.5449 764.484 81.2649 761.248C80.8644 756.82 80.4602 752.37 80.1025 747.934C79.7159 743.46 79.3898 738.952 79.0385 734.427C78.7048 729.877 78.3712 725.327 78.098 720.744C77.7858 716.19 77.5377 711.625 77.2608 707.021L77.266 706.8C77.0067 702.17 76.7474 697.541 76.5448 692.858C76.3133 688.135 76.1033 683.409 75.9322 678.654C75.7184 673.907 75.5687 669.148 75.4116 664.346L75.4094 664.082C75.256 659.302 75.1203 654.497 75.0236 649.662C74.898 644.789 74.8253 639.841 74.7312 634.896C74.5645 625.002 74.5037 614.958 74.5173 604.834C359.477 593.506 453.113 478.832 453.113 478.832Z" fill="#699DEE"/>
<path d="M2185.33 426.441C2185.33 426.441 2281.6 521.191 2286.01 556.911C2290.42 592.631 2242.34 648.531 2242.34 648.531L2185.33 426.441Z" fill="#F2E5DE"/>
<path d="M2150.59 1410.51C2150.59 1410.51 2147.47 1460.88 2137.72 1461.6C2136.42 1461.7 2088.3 1461.7 2088.3 1461.7L2026.86 1461.34C2026.86 1461.34 2027.26 1446.54 2045.22 1443.41C2063.18 1440.28 2093.24 1427.66 2104.12 1403.92C2115.56 1378.95 2150.59 1410.51 2150.59 1410.51Z" fill="#D54A41"/>
<path d="M2287.43 1410.51C2287.43 1410.51 2284.31 1460.88 2274.56 1461.6C2273.26 1461.7 2225.14 1461.7 2225.14 1461.7L2163.7 1461.34C2163.7 1461.34 2164.1 1446.54 2182.06 1443.41C2200.02 1440.28 2230.08 1427.66 2240.96 1403.92C2252.4 1378.95 2287.43 1410.51 2287.43 1410.51Z" fill="#D54A41"/>
<path d="M2082.54 869.181C2082.54 869.181 2098.61 971.951 2158.55 1154.38C2218.49 1336.81 2226.66 1415.81 2226.66 1415.81L2290.96 1414.01C2290.96 1414.01 2291.51 1214.63 2263.88 1122.89C2236.26 1031.15 2257.92 792.161 2257.92 792.161L2082.54 869.181Z" fill="#6791C9"/>
<path d="M2051.25 797.801C2051.25 797.801 2048.97 952.671 2075.77 1142.82C2102.57 1332.97 2093.48 1413.69 2093.48 1413.69L2157.66 1415.82C2157.66 1415.82 2196.01 1225.6 2185.02 1130.43C2174.02 1035.26 2237.54 803.841 2237.54 803.841L2051.25 797.801Z" fill="#75A1DE"/>
<path d="M2175.49 435.391L2145.22 457.811L2101.47 448.601C2102.08 444.611 2104.96 428.081 2107.59 413.101C2107.75 412.221 2107.91 411.331 2108.06 410.471C2110.31 397.731 2112.26 386.781 2112.26 386.781L2153.12 366.421L2168.35 358.831C2168.31 359.101 2167.17 372.971 2167.01 375.001C2164.15 410.961 2175.49 435.391 2175.49 435.391Z" fill="#FFB27D"/>
<path d="M2104.53 424.081C2105.49 423.681 2164.04 406.401 2170.4 408.501C2176.76 410.601 2180.53 422.911 2180.53 422.911L2084.76 444.561C2084.76 444.551 2092.3 429.231 2104.53 424.081Z" fill="#F2E5DE"/>
<path d="M2262.19 816.921C2252.27 862.191 2087.1 867.561 2044.53 826.471C2039.69 821.791 2039.45 799.991 2041.28 770.611C2044.85 713.201 2056.32 626.841 2056.77 582.721C2056.99 561.411 2059.92 539.621 2063.82 519.831C2072.12 477.651 2084.77 444.561 2084.77 444.561C2084.77 444.561 2165.44 418.481 2180.54 422.921C2253.25 444.271 2272.12 771.641 2262.19 816.921Z" fill="#F37168"/>
<path d="M2041.27 770.601C2044.84 713.191 2056.31 626.831 2056.76 582.711C2056.98 561.401 2059.91 539.611 2063.81 519.821L2112.34 511.261C2112.34 511.261 2159.79 705.051 2041.27 770.601Z" fill="#D54A41"/>
<path d="M2067.55 692.542C2067.55 692.542 2070.86 700.453 2063.91 705.763C2056.96 711.073 2052.46 719.672 2054.05 725.952C2055.64 732.232 2070.88 742.492 2076.16 740.842C2081.44 739.192 2092.19 730.912 2091.04 727.592C2089.88 724.282 2098.27 698.502 2085.39 688.572C2072.51 678.652 2067.55 692.542 2067.55 692.542Z" fill="#FFB27D"/>
<path d="M2116 447.001C2110.5 444.001 2074.49 445.791 2036.78 501.361C1999.07 556.931 1974.26 598.251 1981.21 618.281C1988.16 638.311 2051.48 707.781 2062.4 707.781C2073.32 707.781 2090.93 699.841 2091.93 681.981C2091.93 681.981 2047.35 615.161 2056.13 605.161C2059.88 600.881 2093.26 563.21 2121 565.001C2160.76 485.71 2123.5 451.091 2116 447.001Z" fill="#F2E5DE"/>
<path d="M2163.94 375.631C2154.97 392.801 2121.53 407.651 2107.59 413.101C2107.75 412.221 2107.91 411.331 2108.06 410.471C2110.31 397.731 2112.26 386.781 2112.26 386.781L2153.12 366.421C2162.15 366.281 2167.65 368.561 2163.94 375.631Z" fill="#FCA56B"/>
<path d="M2092.41 384.391C2092.41 384.391 2166.12 407.381 2179.73 361.261C2193.34 315.141 2212.02 287.041 2165.54 270.411C2119.05 253.781 2104.67 268.671 2096.38 282.961C2088.09 297.251 2073.58 377.221 2092.41 384.391Z" fill="#FFB27D"/>
<path d="M2131.54 231.342C2074.08 220.134 2062.04 307.748 2062.04 307.748C2062.04 307.748 2075.67 315.917 2107.82 318.403C2107.7 308.65 2114.46 285.472 2114.46 285.472C2114.46 285.472 2113.39 305.373 2115.12 318.036C2120.92 322.631 2128.96 321.791 2142.27 321.837C2142.06 350.568 2157.48 366.508 2169 373.494C2181.73 381.216 2195.06 389.969 2213.36 385.812C2231.66 381.656 2243.13 296.157 2238.58 277.276C2231.75 248.94 2215.69 221.142 2175.42 223.863C2155.22 225.225 2131.54 231.342 2131.54 231.342Z" fill="#303C60"/>
<path d="M2205.41 357.023L2220.31 396.629C2220.31 396.629 2178.81 454.608 2246.51 502.096C2299.53 539.281 2282.76 577.788 2246.36 611.715C2209.97 645.643 2243.64 691.327 2243.64 691.327C2243.64 691.327 2261.08 648.133 2320.1 653.649C2400.57 661.166 2448.13 562.313 2402.91 495.96C2365.5 441.055 2342.14 473.19 2319.14 426.512C2296.15 379.834 2228.41 390.942 2228.41 390.942L2213.97 352.652L2205.41 357.023Z" fill="#303C60"/>
<path d="M2403.87 607.53C2403.53 607.446 2403.21 607.279 2402.94 607.032C2402.08 606.236 2402.02 604.892 2402.81 604.025C2431.09 573.131 2425.76 525.995 2420.62 512.317C2420.08 510.871 2419.58 509.411 2419.05 507.87C2414.19 493.649 2408.14 475.955 2358.17 453.716C2346.13 448.363 2337.78 438.38 2328.92 427.806C2310.65 405.972 2289.92 381.219 2228.82 393.029C2227.67 393.248 2226.56 392.499 2226.33 391.349C2226.11 390.198 2226.86 389.079 2228.01 388.858C2291.57 376.582 2313.15 402.345 2332.18 425.083C2340.71 435.262 2348.76 444.882 2359.89 449.843C2411.57 472.832 2417.94 491.505 2423.07 506.502C2423.59 508.013 2424.08 509.435 2424.6 510.83C2429.98 525.153 2435.57 574.544 2405.95 606.907C2405.4 607.491 2404.6 607.708 2403.87 607.53Z" fill="#303C60"/>
<path d="M2184.49 388.733C2180.78 387.822 2176.84 386.515 2172.67 384.8C2153.53 376.952 2129.64 359.124 2143.11 295.203C2143.36 294.059 2144.48 293.32 2145.62 293.565C2146.79 293.824 2147.51 294.934 2147.26 296.078C2141.72 322.422 2142.15 343.034 2148.58 357.333C2153.45 368.197 2161.62 375.673 2174.28 380.864C2191.99 388.128 2205.01 387.718 2212.98 379.652C2213.8 378.821 2215.15 378.811 2215.98 379.635C2216.81 380.459 2216.82 381.809 2216 382.64C2208.7 390.052 2198.13 392.078 2184.49 388.733Z" fill="#303C60"/>
<path d="M1020.9 569.69L950.21 1410.24C950.21 1410.24 942.8 1461.19 980.7 1461.28C1043.02 1461.43 1290.87 1461.28 1290.87 1461.28C1290.87 1461.28 1243.97 1450.67 1244.54 1426.81C1245.21 1398.68 1327.16 561.73 1327.16 561.73L1020.9 569.69Z" fill="#F5AE78"/>
<path d="M1310.98 1446.04C1298.72 1446.08 1062 1446.82 1001.31 1446.04C974.86 1445.71 970.23 1422.53 970.01 1407.52C969.9 1400.33 970.81 1395.01 970.81 1395.01L972.65 1373.16L977.34 1317.48L981.48 1268.28L986.8 1205.06L991.28 1151.7L1041.51 554.43L1347.77 546.48C1347.77 546.48 1313.25 896.74 1288.84 1151.7C1286.11 1180.11 1283.52 1207.35 1281.12 1232.77C1280.34 1240.89 1279.6 1248.82 1278.87 1256.55C1276.61 1280.67 1274.54 1302.82 1272.74 1322.38C1271.79 1332.69 1270.91 1342.27 1270.12 1351.04C1267 1385.42 1265.18 1407.38 1265.15 1411.55C1265.14 1413.98 1265.34 1416.25 1265.75 1418.35C1270.76 1445.16 1306.38 1446.04 1310.98 1446.04Z" fill="#EE9849"/>
<path d="M277.13 112.291L449.33 803.97L472.91 898.69L553.11 1220.85H2043.09L1747.49 112.291H277.13Z" fill="#FFDC97"/>
<path d="M277.13 112.291L253.27 120.251L521.38 1244.92L553.11 1220.86L277.13 112.291Z" fill="#EE9849"/>
<path d="M521.38 1244.92H2002.2L2043.09 1220.86H553.11L521.38 1244.92Z" fill="#F5AE78"/>
<path d="M1362.02 1446.37H1041.4V1461.61H1362.02V1446.37Z" fill="#F1A34F"/>
<path d="M1970.91 1016.58L1729.14 126.951H274.75V112.291H1747.49L1988.45 1014.61L1970.91 1016.58Z" fill="#F1A34F"/>
<path d="M1280.51 1244.91L1278.86 1256.56L977.33 1317.47L981.47 1268.28L983.44 1244.91H1280.51Z" fill="#F5AE78"/>
<path opacity="0.4" d="M1310.98 1446.04C1298.72 1446.08 1062 1446.82 1001.31 1446.04C974.86 1445.71 970.23 1422.53 970.01 1407.52L1270.11 1351.06C1266.99 1385.44 1265.17 1407.4 1265.14 1411.57C1265.13 1414 1265.33 1416.27 1265.74 1418.37C1270.76 1445.16 1306.38 1446.04 1310.98 1446.04Z" fill="#D86713"/>
<path opacity="0.4" d="M1207.64 996.44L553.11 1220.86L472.91 898.69L1207.64 996.44Z" fill="#D86713"/>
<path d="M277.13 112.291H1747.49L1986.06 1003.23H491.36L277.13 112.291Z" fill="#699DEE"/>
<path d="M1330.23 1145.08C1343.56 1130.4 1339.91 1105.38 1322.08 1089.21C1304.25 1073.03 1279 1071.82 1265.68 1086.5C1252.35 1101.18 1256 1126.2 1273.83 1142.37C1291.66 1158.55 1316.91 1159.76 1330.23 1145.08Z" fill="#F5AE78"/>
<path d="M1916.71 964.62H540.01L384.1 343.531L372.15 295.901L361.95 255.281L338.04 160.021H1694.9L1721.15 255.281L1732.35 295.901L1745.48 343.531L1916.71 964.62Z" fill="#E9F3FE"/>
<path d="M1721.15 255.281H361.95L338.04 160.021H1694.9L1721.15 255.281Z" fill="#AFCDFB"/>
<path d="M403.11 191.161C396.53 191.161 392.53 196.491 394.17 203.071C395.81 209.651 402.47 214.981 409.05 214.981C415.63 214.981 419.63 209.651 417.99 203.071C416.35 196.491 409.69 191.161 403.11 191.161Z" fill="#E9F3FE"/>
<path d="M442.68 191.161C436.1 191.161 432.1 196.491 433.74 203.071C435.38 209.651 442.04 214.981 448.62 214.981C455.2 214.981 459.2 209.651 457.56 203.071C455.91 196.491 449.25 191.161 442.68 191.161Z" fill="#E9F3FE"/>
<path d="M500.16 203.071C498.52 196.491 491.86 191.161 485.28 191.161C478.7 191.161 474.7 196.491 476.34 203.071C477.98 209.651 484.64 214.981 491.22 214.981C497.8 214.981 501.8 209.641 500.16 203.071Z" fill="#E9F3FE"/>
<path d="M1736.02 453.35L1705.65 331.54C1701.17 313.57 1682.97 299 1664.99 299H1336.43C1318.46 299 1307.52 313.57 1312 331.54L1342.37 453.35C1346.85 471.32 1365.05 485.89 1383.03 485.89H1711.59C1729.57 485.89 1740.5 471.32 1736.02 453.35Z" fill="#AFCDFB"/>
<path d="M1675.73 351.72C1679.8 351.72 1682.31 348.39 1681.29 344.31C1680.27 340.24 1676.11 336.9 1672.04 336.9H1350.44C1346.37 336.9 1343.86 340.23 1344.88 344.31C1345.9 348.38 1350.06 351.72 1354.13 351.72H1675.73Z" fill="#699DEE"/>
<path d="M1682.84 380.211C1686.91 380.211 1689.42 376.881 1688.4 372.801C1687.38 368.731 1683.22 365.391 1679.15 365.391H1357.55C1353.48 365.391 1350.97 368.721 1351.99 372.801C1353.01 376.871 1357.17 380.211 1361.24 380.211H1682.84Z" fill="#699DEE"/>
<path d="M1695.5 401.29C1694.48 397.22 1690.32 393.88 1686.25 393.88H1364.65C1360.58 393.88 1358.07 397.21 1359.09 401.29C1360.11 405.36 1364.27 408.7 1368.34 408.7H1689.94C1694.02 408.7 1696.52 405.37 1695.5 401.29Z" fill="#699DEE"/>
<path d="M1499.61 425.791H1372.61C1368.54 425.791 1366.03 429.121 1367.05 433.201C1368.07 437.271 1372.23 440.611 1376.3 440.611H1503.3C1507.37 440.611 1509.88 437.281 1508.86 433.201C1507.84 429.131 1503.68 425.791 1499.61 425.791Z" fill="#699DEE"/>
<path d="M1840.44 898.61L1824.51 834.72C1822.16 825.29 1812.61 817.65 1803.19 817.65H1667.57C1658.14 817.65 1652.41 825.29 1654.76 834.72L1670.69 898.61C1673.04 908.04 1682.59 915.68 1692.02 915.68H1827.64C1837.06 915.68 1842.79 908.04 1840.44 898.61Z" fill="#AFCDFB"/>
<path d="M808.207 771.96L792.277 708.07C789.927 698.64 780.377 691 770.957 691H564.337C554.907 691 549.177 698.64 551.527 708.07L567.457 771.96C569.807 781.39 579.357 789.031 588.787 789.031H795.407C804.827 789.031 810.557 781.39 808.207 771.96Z" fill="#AFCDFB"/>
<path d="M1801.48 842.161C1803.62 842.161 1804.93 840.411 1804.4 838.271C1803.87 836.131 1801.68 834.391 1799.55 834.391H1672.83C1670.69 834.391 1669.38 836.141 1669.91 838.271C1670.44 840.411 1672.63 842.161 1674.76 842.161H1801.48Z" fill="#699DEE"/>
<path d="M1805.2 857.1C1807.34 857.1 1808.65 855.35 1808.12 853.21C1807.59 851.07 1805.4 849.32 1803.27 849.32H1676.55C1674.41 849.32 1673.1 851.07 1673.63 853.21C1674.16 855.35 1676.35 857.1 1678.48 857.1H1805.2Z" fill="#699DEE"/>
<path d="M1811.84 868.161C1811.31 866.021 1809.12 864.271 1806.99 864.271H1680.27C1678.13 864.271 1676.82 866.021 1677.35 868.161C1677.88 870.301 1680.07 872.041 1682.2 872.041H1808.92C1811.06 872.041 1812.38 870.301 1811.84 868.161Z" fill="#699DEE"/>
<path d="M1714.34 881.011H1684.44C1682.3 881.011 1680.99 882.761 1681.52 884.901C1682.05 887.041 1684.24 888.781 1686.37 888.781H1716.27C1718.41 888.781 1719.72 887.031 1719.19 884.901C1718.66 882.761 1716.47 881.011 1714.34 881.011Z" fill="#699DEE"/>
<path d="M770.247 720.51C772.387 720.51 773.697 718.76 773.167 716.62C772.637 714.48 770.447 712.74 768.317 712.74H571.597C569.457 712.74 568.147 714.49 568.677 716.62C569.207 718.76 571.397 720.51 573.527 720.51H770.247Z" fill="#699DEE"/>
<path d="M773.967 735.45C776.107 735.45 777.417 733.7 776.887 731.56C776.357 729.42 774.167 727.67 772.037 727.67H575.317C573.177 727.67 571.867 729.42 572.397 731.56C572.927 733.7 575.117 735.45 577.247 735.45H773.967Z" fill="#699DEE"/>
<path d="M780.607 746.51C780.077 744.37 777.887 742.62 775.757 742.62H579.037C576.897 742.62 575.587 744.37 576.117 746.51C576.647 748.65 578.837 750.39 580.967 750.39H777.687C779.827 750.39 781.147 748.65 780.607 746.51Z" fill="#699DEE"/>
<path d="M673.107 759.36H583.207C581.067 759.36 579.757 761.11 580.287 763.25C580.817 765.39 583.007 767.13 585.137 767.13H675.037C677.177 767.13 678.487 765.38 677.957 763.25C677.427 761.11 675.237 759.36 673.107 759.36Z" fill="#699DEE"/>
<path d="M899.99 851.861C903.21 851.861 905.17 849.251 904.36 846.031C903.56 842.811 900.3 840.201 897.08 840.201H638.81C635.59 840.201 633.63 842.811 634.44 846.031C635.24 849.251 638.5 851.861 641.72 851.861H899.99Z" fill="#F1A34F"/>
<path d="M904.81 871.201C908.03 871.201 909.99 868.591 909.18 865.371C908.38 862.151 905.12 859.541 901.9 859.541H643.63C640.41 859.541 638.45 862.151 639.26 865.371C640.06 868.591 643.32 871.201 646.54 871.201H904.81Z" fill="#F1A34F"/>
<path d="M906.94 879.751H648.66C645.44 879.751 643.48 882.361 644.29 885.581C645.09 888.801 648.35 891.411 651.57 891.411H909.85C913.07 891.411 915.03 888.801 914.22 885.581C913.41 882.361 910.16 879.751 906.94 879.751Z" fill="#F1A34F"/>
<path d="M1233.31 851.861C1236.53 851.861 1238.49 849.251 1237.68 846.031C1236.88 842.811 1233.62 840.201 1230.4 840.201H972.12C968.9 840.201 966.94 842.811 967.75 846.031C968.55 849.251 971.81 851.861 975.03 851.861H1233.31Z" fill="#F1A34F"/>
<path d="M1238.13 871.201C1241.35 871.201 1243.31 868.591 1242.5 865.371C1241.7 862.151 1238.44 859.541 1235.22 859.541H976.94C973.72 859.541 971.76 862.151 972.57 865.371C973.37 868.591 976.63 871.201 979.85 871.201H1238.13Z" fill="#F1A34F"/>
<path d="M1240.26 879.751H981.98C978.76 879.751 976.8 882.361 977.61 885.581C978.41 888.801 981.67 891.411 984.89 891.411H1243.17C1246.39 891.411 1248.35 888.801 1247.54 885.581C1246.73 882.361 1243.48 879.751 1240.26 879.751Z" fill="#F1A34F"/>
<path d="M1556.37 851.861C1559.59 851.861 1561.55 849.251 1560.74 846.031C1559.94 842.811 1556.68 840.201 1553.46 840.201H1295.18C1291.96 840.201 1290 842.811 1290.81 846.031C1291.61 849.251 1294.87 851.861 1298.09 851.861H1556.37Z" fill="#F1A34F"/>
<path d="M1561.19 871.201C1564.41 871.201 1566.37 868.591 1565.56 865.371C1564.76 862.151 1561.5 859.541 1558.28 859.541H1300C1296.78 859.541 1294.82 862.151 1295.63 865.371C1296.43 868.591 1299.69 871.201 1302.91 871.201H1561.19Z" fill="#F1A34F"/>
<path d="M1570.6 885.581C1569.8 882.361 1566.54 879.751 1563.32 879.751H1305.04C1301.82 879.751 1299.86 882.361 1300.67 885.581C1301.47 888.801 1304.73 891.411 1307.95 891.411H1566.23C1569.44 891.401 1571.4 888.801 1570.6 885.581Z" fill="#F1A34F"/>
<path d="M1620.57 924.511H624.56C615.76 924.511 606.83 917.381 604.64 908.621L584.75 828.851C583.62 824.311 584.44 819.821 587 816.541C589.52 813.321 593.37 811.551 597.85 811.551H1593.86C1602.66 811.551 1611.59 818.681 1613.78 827.441L1633.67 907.211C1634.8 911.751 1633.98 916.241 1631.42 919.521C1628.9 922.741 1625.05 924.511 1620.57 924.511ZM597.85 817.391C595.21 817.391 592.99 818.371 591.61 820.141C590.14 822.021 589.72 824.621 590.42 827.441L610.31 907.211C611.86 913.421 618.38 918.671 624.56 918.671H1620.57C1623.21 918.671 1625.43 917.691 1626.81 915.921C1628.28 914.041 1628.7 911.441 1628 908.621L1608.11 828.851C1606.56 822.641 1600.03 817.391 1593.86 817.391H597.85Z" fill="#F1A34F"/>
<rect width="971.997" height="20.5089" rx="10.2544" transform="matrix(1 0 0.221378 0.975188 823.496 693)" fill="#699DEE"/>
<rect width="971.997" height="20.5089" rx="10.2544" transform="matrix(1 0 0.221378 0.975188 832.496 727)" fill="#699DEE"/>
<rect width="971.997" height="20.5089" rx="10.2544" transform="matrix(1 0 0.221378 0.975188 843.496 761)" fill="#699DEE"/>
<path d="M686.097 296H450L544.994 671.138H781.091L686.097 296Z" fill="#99BBEB"/>
<path d="M680.275 303.644H464.301L553.739 656.842H769.713L680.275 303.644Z" fill="white"/>
<path d="M570.946 377.831C570.684 377.391 561.576 356.354 559.05 348.171C556.525 339.988 570.245 338.82 570.245 338.82C570.245 338.82 580.183 332.83 589.25 335.898C598.317 338.966 605.266 344.127 610.66 350.556C616.057 356.986 614.045 377.021 614.045 377.021L570.946 377.831Z" fill="#2E2D3D"/>
<path d="M562.076 445.43C561.937 445.083 560.858 436.804 560.813 436.468C558.307 419.035 579.235 414.128 601.358 414.128C627.35 414.128 646.151 418.738 653.551 436.858C653.769 437.39 657.369 445.688 657.435 446.247C609.423 446.887 562.076 445.43 562.076 445.43Z" fill="#D5E1E8"/>
<path d="M609.246 427.661C607.603 431.346 605.753 431.5 601.986 427.661C598.99 424.608 589.804 417.647 588.913 414.128L583.074 379.041C582.183 375.522 584.424 372.643 588.054 372.643H595.314C598.944 372.643 602.644 375.522 603.535 379.041L613.835 414.128C614.726 417.647 610.72 424.358 609.246 427.661Z" fill="#F09959"/>
<path d="M595.315 372.646H588.055C584.425 372.646 582.184 375.526 583.075 379.045L588.312 410.169C597.101 412.686 606.811 407.572 610.252 401.94L603.532 379.045C602.645 375.526 598.946 372.646 595.315 372.646Z" fill="#E38540"/>
<path d="M577.927 416.687L594.845 437.54C594.845 437.54 599.818 432.571 600.665 433.547C601.516 434.522 602.919 446.814 602.919 446.814C602.919 446.814 616.83 446.995 617.287 446.413C617.743 445.827 611.091 433.061 612.498 433.061C613.906 433.061 619.073 436.761 619.073 436.761L626.984 416.687L623.958 416.013L605.482 427.117L579.961 416.256L577.927 416.687Z" fill="#BDCCD4"/>
<path d="M593.668 426.296L603.735 431.916L604.834 446.84L616.328 446.208L609.981 432.637L615.541 426.296L611.394 423.22H596.253L593.668 426.296Z" fill="#D54A41"/>
<path d="M587.578 406.469L579.387 416.328C579.387 416.328 595.032 435.103 595.636 435.103C596.24 435.103 602.255 424.75 602.255 424.75L607.762 424.658L618.752 433.546L624.497 416.132L611.45 405.494C611.45 405.494 606.8 422.052 605.292 422.442C603.785 422.831 603.822 423.028 602.275 422.052C600.728 421.077 587.578 406.469 587.578 406.469Z" fill="#D5E1E8"/>
<path d="M599.114 401.983C611.231 401.983 617.768 389.007 613.715 373.001C609.662 356.995 596.553 344.02 584.436 344.02C572.319 344.02 565.782 356.995 569.835 373.001C573.888 389.007 586.996 401.983 599.114 401.983Z" fill="#F09959"/>
<path d="M571.968 372.554C575.08 376.743 575.541 381.215 572.998 382.54C570.455 383.866 565.867 381.546 562.755 377.356C559.642 373.166 559.182 368.695 561.725 367.369C564.269 366.047 568.856 368.368 571.968 372.554Z" fill="#F09959"/>
<path d="M610.369 372.554C609.379 376.743 611.183 381.215 614.397 382.54C617.612 383.866 621.024 381.546 622.015 377.356C623.005 373.166 621.201 368.695 617.987 367.369C614.773 366.047 611.361 368.368 610.369 372.554Z" fill="#F09959"/>
<path d="M604.52 384.896C604.52 384.896 601.895 391.737 596.519 391.737C591.143 391.737 585.053 384.896 585.053 384.896H604.52Z" fill="white"/>
<path d="M573.911 353.285C581.399 347.149 585.729 348.171 595.062 358.254C604.398 368.333 612.583 368.514 612.583 368.514L610.989 358.061C610.989 358.061 596.089 339.116 583.155 341.599C570.221 344.081 565.505 355.918 565.505 355.918C565.505 355.918 570.462 378.1 572.546 378.856C574.63 379.611 572.844 371.698 573.793 370.091C574.742 368.484 570.107 360.886 571.028 357.379C571.949 353.871 573.911 353.285 573.911 353.285Z" fill="#2E2D3D"/>
<path d="M605.883 364.683C609.888 368.033 612.061 381.338 613.682 381.192C615.303 381.045 612.725 368.48 611.939 367.165C611.153 365.851 605.883 364.683 605.883 364.683Z" fill="#2E2D3D"/>
<path d="M670.527 491.255H569.74C566.198 491.255 562.588 488.446 561.718 485.011C560.848 481.577 563.035 478.767 566.578 478.767H667.364C670.907 478.767 674.517 481.577 675.387 485.011C676.26 488.446 674.073 491.255 670.527 491.255Z" fill="#99BBEB"/>
<path d="M662.845 510.447H587.144C583.602 510.447 579.992 507.637 579.122 504.203C578.252 500.768 580.439 497.958 583.982 497.958H659.683C663.226 497.958 666.836 500.768 667.706 504.203C668.574 507.633 666.388 510.447 662.845 510.447Z" fill="#99BBEB"/>
<path d="M734.543 579.46H550.398C548.343 579.46 546.248 577.83 545.743 575.837C545.239 573.844 546.508 572.214 548.563 572.214H732.708C734.764 572.214 736.859 573.844 737.363 575.837C737.868 577.83 736.599 579.46 734.543 579.46Z" fill="#99BBEB"/>
<path d="M738.809 596.304H554.664C552.608 596.304 550.513 594.674 550.009 592.681C549.504 590.688 550.773 589.058 552.829 589.058H736.974C739.03 589.058 741.124 590.688 741.629 592.681C742.134 594.674 740.865 596.304 738.809 596.304Z" fill="#99BBEB"/>
<path d="M743.075 613.152H558.93C556.874 613.152 554.78 611.522 554.275 609.529C553.77 607.536 555.039 605.906 557.095 605.906H741.24C743.296 605.906 745.391 607.536 745.895 609.529C746.4 611.522 745.131 613.152 743.075 613.152Z" fill="#99BBEB"/>
<path d="M675.685 448.741H543.05C539.77 448.741 536.447 446.155 535.642 442.975L505.634 324.474C504.829 321.294 506.842 318.708 510.123 318.708H642.757C646.038 318.708 649.361 321.294 650.166 324.474L680.173 442.975C680.978 446.155 678.965 448.741 675.685 448.741ZM511.099 322.562C510.013 322.562 509.343 323.418 509.611 324.474L539.618 442.975C539.884 444.027 540.985 444.887 542.074 444.887H674.709C675.794 444.887 676.464 444.031 676.197 442.975L646.19 324.474C645.923 323.422 644.823 322.562 643.733 322.562H511.099Z" fill="#99BBEB"/>
<path d="M565.966 526.739L571.717 534.282L580.608 535.493L575.884 541.363L579.451 549.654L570.777 545.738L564.091 549.654L563.455 541.363L555.758 535.493L564.036 534.282L565.966 526.739Z" fill="#F5AE78"/>
<path d="M597.418 526.739L603.169 534.282L612.063 535.493L607.335 541.363L610.902 549.654L602.228 545.738L595.542 549.654L594.91 541.363L587.209 535.493L595.491 534.282L597.418 526.739Z" fill="#F5AE78"/>
<path d="M628.868 526.739L634.619 534.282L643.514 535.493L638.786 541.363L642.353 549.654L633.679 545.738L626.993 549.654L626.361 541.363L618.66 535.493L626.942 534.282L628.868 526.739Z" fill="#F5AE78"/>
<path d="M660.323 526.739L666.07 534.282L674.965 535.493L670.237 541.363L673.804 549.654L665.134 545.738L658.444 549.654L657.812 541.363L650.111 535.493L658.393 534.282L660.323 526.739Z" fill="#F5AE78"/>
<path d="M692.275 526.739L698.022 534.282L706.917 535.493L702.189 541.363L705.756 549.654L697.086 545.738L690.396 549.654L689.764 541.363L682.063 535.493L690.344 534.282L692.275 526.739Z" fill="#F5AE78"/>
</svg>
