<svg width="55" height="56" viewBox="0 0 55 56" fill="none" xmlns="http://www.w3.org/2000/svg">
<circle cx="27.5" cy="28" r="27.5" fill="#0263B2"/>
<path fill-rule="evenodd" clip-rule="evenodd" d="M18.075 13.0254C18.075 13.3156 18.3184 13.5508 18.6188 13.5508H19.525C20.1256 13.5508 20.6125 14.0213 20.6125 14.6017V18.8051C20.6125 19.3855 20.1256 19.8559 19.525 19.8559H15.175C14.5744 19.8559 14.0875 19.3855 14.0875 18.8051V14.6017C14.0875 14.0213 14.5744 13.5508 15.175 13.5508H16.0813C16.3816 13.5508 16.625 13.3156 16.625 13.0254C16.625 12.7352 16.3816 12.5 16.0813 12.5H15.175C13.9738 12.5 13 13.441 13 14.6017V18.8051C13 19.9658 13.9738 20.9068 15.175 20.9068H19.525C20.7262 20.9068 21.7 19.9658 21.7 18.8051V14.6017C21.7 13.441 20.7262 12.5 19.525 12.5H18.6188C18.3184 12.5 18.075 12.7352 18.075 13.0254Z" fill="white"/>
<path fill-rule="evenodd" clip-rule="evenodd" d="M29.675 13.5508H25.325C24.7244 13.5508 24.2375 14.0213 24.2375 14.6017V18.8051C24.2375 19.3855 24.7244 19.8559 25.325 19.8559H29.675C30.2756 19.8559 30.7625 19.3855 30.7625 18.8051V14.6017C30.7625 14.0213 30.2756 13.5508 29.675 13.5508ZM25.325 12.5C24.1238 12.5 23.15 13.441 23.15 14.6017V18.8051C23.15 19.9658 24.1238 20.9068 25.325 20.9068H29.675C30.8762 20.9068 31.85 19.9658 31.85 18.8051V14.6017C31.85 13.441 30.8762 12.5 29.675 12.5H25.325Z" fill="white"/>
<path fill-rule="evenodd" clip-rule="evenodd" d="M35.475 13.5508H39.825C40.4256 13.5508 40.9125 14.0213 40.9125 14.6017V18.8051C40.9125 19.3855 40.4256 19.8559 39.825 19.8559H38.9188C38.6184 19.8559 38.375 20.0912 38.375 20.3814C38.375 20.6715 38.6184 20.9068 38.9188 20.9068H39.825C41.0262 20.9068 42 19.9658 42 18.8051V14.6017C42 13.441 41.0262 12.5 39.825 12.5H35.475C34.2738 12.5 33.3 13.441 33.3 14.6017V18.8051C33.3 19.9658 34.2738 20.9068 35.475 20.9068H36.3813C36.6816 20.9068 36.925 20.6715 36.925 20.3814C36.925 20.0912 36.6816 19.8559 36.3813 19.8559H35.475C34.8744 19.8559 34.3875 19.3855 34.3875 18.8051V14.6017C34.3875 14.0213 34.8744 13.5508 35.475 13.5508Z" fill="white"/>
<path fill-rule="evenodd" clip-rule="evenodd" d="M19.547 15.281C19.7593 15.4862 19.7593 15.8189 19.547 16.0241L16.9875 18.4973L15.5155 17.0749C15.3032 16.8697 15.3032 16.537 15.5155 16.3319C15.7279 16.1267 16.0721 16.1267 16.2845 16.3319L16.9875 17.0112L18.778 15.281C18.9904 15.0758 19.3346 15.0758 19.547 15.281Z" fill="white"/>
<path fill-rule="evenodd" clip-rule="evenodd" d="M22.9688 23.5339C22.9688 22.5666 23.7802 21.7825 24.7812 21.7825C25.7823 21.7825 26.5938 22.5666 26.5938 23.5339V25.9859H27.1375C28.0501 25.9859 28.8195 26.5784 29.0562 27.387H29.675C30.5876 27.387 31.357 27.9795 31.5937 28.7881H32.2125C33.3136 28.7881 34.2063 29.6507 34.2063 30.7147V37.753L33.8438 40.5553V43.5H22.6063V40.6977L20.4313 37.8955V35.6186C20.4313 35.3285 20.6747 35.0932 20.975 35.0932C21.2753 35.0932 21.5188 35.3285 21.5188 35.6186V37.5452L23.6938 40.3475V42.4492H32.7563V40.4899L33.1188 37.6876V30.7147C33.1188 30.2311 32.713 29.839 32.2125 29.839H31.6688V32.9915C31.6688 33.2817 31.4253 33.5169 31.125 33.5169C30.8247 33.5169 30.5813 33.2817 30.5813 32.9915V29.3136C30.5813 28.8299 30.1755 28.4379 29.675 28.4379H29.1313V32.9915C29.1313 33.2817 28.8878 33.5169 28.5875 33.5169C28.2872 33.5169 28.0438 33.2817 28.0438 32.9915V27.9124C28.0438 27.4288 27.638 27.0367 27.1375 27.0367H26.5938V32.9915C26.5938 33.2817 26.3503 33.5169 26.05 33.5169C25.7497 33.5169 25.5063 33.2817 25.5063 32.9915V23.5339C25.5063 23.147 25.1817 22.8333 24.7812 22.8333C24.3808 22.8333 24.0563 23.147 24.0563 23.5339V34.2175C24.0563 34.5077 23.8128 34.7429 23.5125 34.7429C23.2122 34.7429 22.9688 34.5077 22.9688 34.2175V30.5395H22.425C21.9245 30.5395 21.5188 30.9316 21.5188 31.4153V33.5169C21.5188 33.8071 21.2753 34.0424 20.975 34.0424C20.6747 34.0424 20.4313 33.8071 20.4313 33.5169V31.4153C20.4313 30.3512 21.3239 29.4887 22.425 29.4887H22.9688V23.5339Z" fill="white"/>
</svg>
