<svg width="55" height="56" viewBox="0 0 55 56" fill="none" xmlns="http://www.w3.org/2000/svg">
<circle cx="27.5" cy="28" r="27.5" fill="#0263B2"/>
<path d="M37.68 37.5C37.68 37.8313 37.4113 38.1 37.08 38.1C36.7486 38.1 36.48 37.8313 36.48 37.5C36.48 37.1686 36.7486 36.9 37.08 36.9C37.4113 36.9 37.68 37.1686 37.68 37.5Z" fill="white"/>
<path fill-rule="evenodd" clip-rule="evenodd" d="M40.3757 16.9242C39.9473 16.4958 39.2527 16.4958 38.8242 16.9242L38.2125 17.536L37.3623 18.3861L36.2115 19.537L35.3586 20.3899L27.1879 28.5606C26.7527 28.9957 26.0472 28.9957 25.6121 28.5606L23.1757 26.1242C22.7473 25.6958 22.0527 25.6958 21.6243 26.1242C21.1958 26.5527 21.1958 27.2473 21.6243 27.6757L25.3473 31.3988C25.9287 31.9801 26.8713 31.9801 27.4526 31.3988L36.5822 22.2692L37.4688 21.3826L38.6881 20.1633L39.5567 19.2947L40.3757 18.4757C40.8041 18.0473 40.8041 17.3527 40.3757 16.9242ZM37.9757 16.0757C38.8728 15.1787 40.3272 15.1787 41.2242 16.0757C42.1213 16.9728 42.1213 18.4272 41.2242 19.3242L28.3012 32.2473C27.2512 33.2973 25.5488 33.2973 24.4988 32.2473L20.7757 28.5242C19.8787 27.6272 19.8787 26.1728 20.7757 25.2757C21.6728 24.3786 23.1272 24.3786 24.0243 25.2757L26.4 27.6514L37.9757 16.0757Z" fill="white"/>
<path fill-rule="evenodd" clip-rule="evenodd" d="M20.8339 37.9416C23.5102 39.4421 26.6536 39.879 29.6377 39.1653C32.6218 38.4516 35.2273 36.6398 36.9352 34.0908C38.6431 31.5419 39.3278 28.443 38.8529 25.4118C38.6295 23.9855 38.1571 22.6235 37.4688 21.3826L36.5822 22.2692C37.1148 23.3049 37.4841 24.4272 37.6674 25.5975C38.0956 28.3306 37.4782 31.1246 35.9383 33.4229C34.3984 35.7211 32.0491 37.3548 29.3586 37.9982C26.668 38.6417 23.8338 38.2478 21.4207 36.8949C19.0076 35.5421 17.1929 33.3297 16.3382 30.6986C15.5454 28.2582 15.6325 25.6239 16.5727 23.2499C16.6947 22.9418 16.5648 22.5859 16.2638 22.4473C15.9628 22.3086 15.605 22.4398 15.4813 22.7472C14.4158 25.396 14.3108 28.3419 15.1969 31.0694C16.1449 33.9875 18.1576 36.4412 20.8339 37.9416ZM35.3586 20.3899C34.8507 19.7607 34.2713 19.1851 33.628 18.6758C31.4591 16.9585 28.7228 16.1216 25.9643 16.3318C24.8708 16.4151 23.8057 16.6605 22.801 17.0526C22.4923 17.1731 22.1371 17.0413 22 16.7397C21.8629 16.438 21.9958 16.0808 22.3038 15.9587C23.436 15.5098 24.6383 15.2293 25.8732 15.1352C28.9325 14.9022 31.9674 15.8304 34.3729 17.7349C35.0525 18.273 35.6677 18.8778 36.2115 19.537L35.3586 20.3899Z" fill="white"/>
<path fill-rule="evenodd" clip-rule="evenodd" d="M36.7078 16.0651C33.832 13.6236 30.1418 12.3554 26.3727 12.5131C22.6036 12.6709 19.0324 14.243 16.3706 16.9162C13.7089 19.5895 12.1521 23.1675 12.0106 26.9372C11.869 30.7069 13.1531 34.3916 15.6069 37.2569C18.0607 40.1222 21.5041 41.9577 25.2507 42.3976C28.7983 42.8142 32.3713 41.9505 35.3308 39.9738C35.6064 39.7898 35.665 39.4134 35.4701 39.1454C35.2752 38.8774 34.9006 38.8194 34.6244 39.0025C31.9094 40.8022 28.6385 41.5872 25.3907 41.2058C21.9437 40.8011 18.7759 39.1124 16.5184 36.4763C14.2609 33.8403 13.0795 30.4504 13.2097 26.9822C13.3399 23.5141 14.7722 20.2223 17.221 17.7629C19.6698 15.3036 22.9553 13.8572 26.4229 13.7121C29.8905 13.567 33.2854 14.7337 35.9312 16.9799C36.4446 17.4157 36.9225 17.886 37.3623 18.3861L38.2125 17.536C37.7484 17.0139 37.2461 16.5221 36.7078 16.0651ZM39.491 19.1949C39.5131 19.2281 39.535 19.2613 39.5567 19.2947L38.6881 20.1633C39.758 21.8677 40.4514 23.8003 40.6988 25.8317C41.0941 29.0779 40.3232 32.3522 38.5352 35.0749C38.3533 35.3518 38.4129 35.7262 38.6817 35.9199C38.9506 36.1137 39.3267 36.0534 39.5095 35.7771C41.4735 32.8091 42.3218 29.2325 41.89 25.6867C41.6049 23.3462 40.7753 21.1266 39.491 19.1949Z" fill="white"/>
</svg>
