<svg width="55" height="56" viewBox="0 0 55 56" fill="none" xmlns="http://www.w3.org/2000/svg">
<circle cx="27.5" cy="28" r="27.5" fill="#0263B2"/>
<path fill-rule="evenodd" clip-rule="evenodd" d="M38.1225 34.5172C39.1529 33.2268 39.93 31.7412 40.4064 30.1415C41.0083 28.1204 41.1116 25.9792 40.7071 23.9078C40.3026 21.8363 39.4028 19.8984 38.0874 18.2658C36.7721 16.6331 35.0818 15.3561 33.1662 14.5479C31.2506 13.7396 29.1689 13.4251 27.1055 13.6321C25.0421 13.8391 23.0606 14.5613 21.3367 15.7347C19.6127 16.9081 18.1994 18.4965 17.222 20.3591C16.4484 21.8335 15.9667 23.4437 15.7995 25.0984C15.7938 25.1551 15.8095 25.2039 15.8538 25.2504C15.9025 25.3016 15.9828 25.3431 16.0835 25.3431L27.761 25.3431C28.4112 25.3431 29.0348 25.6062 29.4945 26.0745L37.7518 34.4857C37.823 34.5582 37.9086 34.5868 37.9786 34.5856C38.0422 34.5846 38.0872 34.5614 38.1225 34.5172ZM38.9376 35.1925C38.4494 35.8039 37.556 35.7998 37.0089 35.2425L28.7516 26.8313C28.4889 26.5637 28.1326 26.4133 27.761 26.4133L16.0835 26.4133C15.3098 26.4133 14.6752 25.7728 14.7544 24.9888C14.9355 23.1962 15.4573 21.4519 16.2954 19.8546C17.3542 17.8367 18.8853 16.116 20.7529 14.8448C22.6206 13.5736 24.7671 12.7913 27.0025 12.567C29.2379 12.3427 31.4931 12.6835 33.5683 13.5591C35.6435 14.4347 37.4747 15.8181 38.8996 17.5868C40.3246 19.3555 41.2993 21.4549 41.7376 23.699C42.1758 25.9431 42.0639 28.2626 41.4119 30.4522C40.8958 32.1852 40.0538 33.7945 38.9376 35.1925Z" fill="white"/>
<path fill-rule="evenodd" clip-rule="evenodd" d="M13.0518 29.9238C13.1767 31.1592 13.477 32.372 13.9453 33.5237C14.5789 35.0819 15.5076 36.4977 16.6784 37.6903C17.8492 38.8829 19.2391 39.8289 20.7687 40.4743C21.8993 40.9514 23.0899 41.2573 24.3027 41.3845C24.3584 41.3903 24.4063 41.3743 24.452 41.3292C24.5023 41.2796 24.5429 41.1978 24.5429 41.0952L24.5429 30.0359C24.5429 29.8389 24.3861 29.6792 24.1927 29.6792L13.3358 29.6791C13.2351 29.6792 13.1548 29.7206 13.1061 29.7718C13.0618 29.8183 13.0461 29.8671 13.0518 29.9238ZM12.0067 30.0334C11.9275 29.2494 12.5621 28.6089 13.3358 28.6089H24.1927C24.9664 28.6089 25.5936 29.2478 25.5936 30.0359L25.5936 41.0952C25.5936 41.8833 24.9648 42.5298 24.1952 42.4491C22.8813 42.3113 21.5915 41.9799 20.3667 41.4631C18.7095 40.7639 17.2038 39.7391 15.9355 38.4471C14.6671 37.1551 13.661 35.6213 12.9746 33.9333C12.4673 32.6856 12.1419 31.3718 12.0067 30.0334Z" fill="white"/>
<path fill-rule="evenodd" clip-rule="evenodd" d="M29.4352 42.4025C30.8699 42.2803 32.2761 41.9084 33.5919 41.3005C34.9078 40.6926 36.1089 39.86 37.1443 38.8411L29.4352 31.964V42.4025ZM29.0847 43.4991C28.6983 43.5193 28.3845 43.1979 28.3845 42.8039V31.1773C28.3845 30.5642 29.0936 30.2366 29.5464 30.6406L38.133 38.3004C38.424 38.56 38.4546 39.0122 38.1851 39.295C36.9955 40.5433 35.5851 41.5549 34.0259 42.2752C32.4667 42.9955 30.7903 43.4099 29.0847 43.4991Z" fill="white"/>
<path fill-rule="evenodd" clip-rule="evenodd" d="M18.8853 32.8349C19.0787 32.8349 19.2355 32.6751 19.2355 32.4781C19.2355 32.2811 19.0787 32.1214 18.8853 32.1214C18.6919 32.1214 18.5351 32.2811 18.5351 32.4781C18.5351 32.6751 18.6919 32.8349 18.8853 32.8349ZM18.8853 33.9051C19.659 33.9051 20.2862 33.2662 20.2862 32.4781C20.2862 31.69 19.659 31.0511 18.8853 31.0511C18.1116 31.0511 17.4844 31.69 17.4844 32.4781C17.4844 33.2662 18.1116 33.9051 18.8853 33.9051Z" fill="white"/>
<path fill-rule="evenodd" clip-rule="evenodd" d="M21.6871 36.4024C21.8805 36.4024 22.0373 36.2427 22.0373 36.0456C22.0373 35.8486 21.8805 35.6889 21.6871 35.6889C21.4937 35.6889 21.3369 35.8486 21.3369 36.0456C21.3369 36.2427 21.4937 36.4024 21.6871 36.4024ZM21.6871 37.4726C22.4608 37.4726 23.088 36.8337 23.088 36.0456C23.088 35.2575 22.4608 34.6186 21.6871 34.6186C20.9134 34.6186 20.2862 35.2575 20.2862 36.0456C20.2862 36.8337 20.9134 37.4726 21.6871 37.4726Z" fill="white"/>
<path fill-rule="evenodd" clip-rule="evenodd" d="M22.4088 32.0997C22.6139 32.3087 22.6139 32.6475 22.4088 32.8565L18.9065 36.424C18.7014 36.633 18.3688 36.633 18.1636 36.424C17.9584 36.215 17.9584 35.8762 18.1636 35.6672L21.6658 32.0997C21.871 31.8907 22.2036 31.8907 22.4088 32.0997Z" fill="white"/>
<path fill-rule="evenodd" clip-rule="evenodd" d="M21.1617 21.4188C21.1617 21.1233 21.3969 20.8837 21.6871 20.8837H26.24C26.5301 20.8837 26.7653 21.1233 26.7653 21.4188C26.7653 21.7143 26.5301 21.9539 26.24 21.9539H21.6871C21.3969 21.9539 21.1617 21.7143 21.1617 21.4188ZM21.1617 22.8458C21.1617 22.5503 21.3969 22.3107 21.6871 22.3107H26.9404C27.2306 22.3107 27.4658 22.5503 27.4658 22.8458C27.4658 23.1414 27.2306 23.3809 26.9404 23.3809H21.6871C21.3969 23.3809 21.1617 23.1414 21.1617 22.8458Z" fill="white"/>
<path d="M22.1774 19.4567C22.1774 19.7522 21.9422 19.9918 21.6521 19.9918C21.3619 19.9918 21.1267 19.7522 21.1267 19.4567C21.1267 19.1611 21.3619 18.9215 21.6521 18.9215C21.9422 18.9215 22.1774 19.1611 22.1774 19.4567Z" fill="white"/>
<path d="M23.4382 19.4567C23.4382 19.7522 23.203 19.9918 22.9129 19.9918C22.6227 19.9918 22.3875 19.7522 22.3875 19.4567C22.3875 19.1611 22.6227 18.9215 22.9129 18.9215C23.203 18.9215 23.4382 19.1611 23.4382 19.4567Z" fill="white"/>
</svg>
