<svg width="24" height="24" viewBox="0 0 24 24" fill="none" xmlns="http://www.w3.org/2000/svg">
<path fill-rule="evenodd" clip-rule="evenodd" d="M2 4.5C2 3.11929 3.11929 2 4.5 2H7C7.55228 2 8 2.44772 8 3C8 3.55228 7.55228 4 7 4H4.5C4.22386 4 4 4.22386 4 4.5V7C4 7.55228 3.55228 8 3 8C2.44772 8 2 7.55228 2 7V4.5ZM19.5 2C20.8807 2 22 3.11929 22 4.5V7C22 7.55228 21.5523 8 21 8C20.4477 8 20 7.55228 20 7V4.5C20 4.22386 19.7761 4 19.5 4H17C16.4477 4 16 3.55228 16 3C16 2.44772 16.4477 2 17 2H19.5ZM2 19.5C2 20.8807 3.11929 22 4.5 22H7C7.55228 22 8 21.5523 8 21C8 20.4477 7.55228 20 7 20H4.5C4.22386 20 4 19.7761 4 19.5V17C4 16.4477 3.55228 16 3 16C2.44772 16 2 16.4477 2 17V19.5ZM19.5 22C20.8807 22 22 20.8807 22 19.5V17C22 16.4477 21.5523 16 21 16C20.4477 16 20 16.4477 20 17V19.5C20 19.7761 19.7761 20 19.5 20H17C16.4477 20 16 20.4477 16 21C16 21.5523 16.4477 22 17 22H19.5ZM6.20665 11.953C6.4376 11.627 6.79455 11.1872 7.28936 10.7474C8.27057 9.87522 9.79279 9 12 9C14.2072 9 15.7294 9.87522 16.7106 10.7474C17.2054 11.1872 17.5624 11.627 17.7934 11.953L17.8263 12L17.7934 12.047C17.5624 12.373 17.2054 12.8128 16.7106 13.2526C15.7294 14.1248 14.2072 15 12 15C9.79279 15 8.27057 14.1248 7.28936 13.2526C6.79455 12.8128 6.4376 12.373 6.20665 12.047L6.17369 12L6.20665 11.953ZM19 12C19.8944 12.4472 19.8942 12.4477 19.894 12.4481L19.8935 12.4491L19.8923 12.4515L19.8894 12.4572L19.8813 12.4729C19.8748 12.4854 19.8663 12.5015 19.8556 12.5212C19.8343 12.5606 19.8045 12.614 19.7658 12.6796C19.6887 12.8105 19.5759 12.9905 19.4254 13.203C19.1251 13.627 18.6696 14.1872 18.0394 14.7474C16.7706 15.8752 14.7928 17 12 17C9.20721 17 7.22943 15.8752 5.96064 14.7474C5.33045 14.1872 4.8749 13.627 4.5746 13.203C4.42407 12.9905 4.31135 12.8105 4.23416 12.6796C4.19554 12.614 4.16571 12.5606 4.14439 12.5212C4.13373 12.5015 4.12519 12.4854 4.11873 12.4729L4.1106 12.4572L4.1077 12.4515L4.10654 12.4491L4.10603 12.4481C4.1058 12.4477 4.10557 12.4472 5 12C4.10557 11.5528 4.1058 11.5523 4.10603 11.5519L4.10654 11.5509L4.1077 11.5485L4.1106 11.5428L4.11873 11.5271C4.12519 11.5147 4.13373 11.4985 4.14439 11.4788C4.16571 11.4394 4.19554 11.386 4.23416 11.3204C4.31135 11.1895 4.42407 11.0095 4.5746 10.797C4.8749 10.373 5.33045 9.81276 5.96064 9.25259C7.22943 8.12478 9.20721 7 12 7C14.7928 7 16.7706 8.12478 18.0394 9.25259C18.6696 9.81276 19.1251 10.373 19.4254 10.797C19.5759 11.0095 19.6887 11.1895 19.7658 11.3204C19.8045 11.386 19.8343 11.4394 19.8556 11.4788C19.8663 11.4985 19.8748 11.5147 19.8813 11.5271L19.8894 11.5428L19.8923 11.5485L19.8935 11.5509L19.894 11.5519C19.8942 11.5523 19.8944 11.5528 19 12ZM5 12L4.10557 12.4472C3.96481 12.1657 3.96481 11.8343 4.10557 11.5528L5 12ZM19.8944 12.4472L19 12L19.8944 11.5528C20.0352 11.8343 20.0352 12.1657 19.8944 12.4472ZM5.89233 12.4514C5.8922 12.4516 5.89222 12.4516 5.89241 12.4512L5.89233 12.4514ZM12 10C10.8954 10 10 10.8954 10 12C10 13.1046 10.8954 14 12 14C13.1046 14 14 13.1046 14 12C14 10.8954 13.1046 10 12 10Z" fill="#0263B2"/>
</svg>
