<svg width="24" height="24" viewBox="0 0 24 24" fill="none" xmlns="http://www.w3.org/2000/svg">
<path fill-rule="evenodd" clip-rule="evenodd" d="M5.80952 4.49958C5.80952 4.2238 6.02237 4 6.28571 4H15.6541C15.4484 4.45463 15.3333 4.9632 15.3333 5.5V7H17.2381L15.3333 7V13V13.7778V17.5885C15.3333 18.9204 14.3051 20 13.0367 20C11.7683 20 10.7401 18.9204 10.7401 17.5885V16.0495C10.7401 15.4699 10.2926 15 9.74056 15H5.80952V12.2286V4.49958ZM17.2381 13.7778V17.5885C17.2381 20.0249 15.3571 22 13.0367 22C13.0085 22 12.9804 21.9997 12.9524 21.9991V22H7.71429C4.59677 22 2 19.3488 2 16.0495C2 15.4699 2.44752 15 2.99953 15H3.90476V12.2286V4.49958C3.90476 3.1185 4.9711 2 6.28571 2H18.6667C20.5076 2 22 3.567 22 5.5V7.9505C22 8.53012 21.5525 9 21.0005 9H17.2381V13V13.7778ZM17.2381 7V5.5C17.2381 4.67157 17.8777 4 18.6667 4C19.4556 4 20.0952 4.67157 20.0952 5.5V7H17.2381ZM8.83532 17.5885C8.83532 18.4785 9.08631 19.3069 9.51801 20H7.71429C5.9394 20 4.43201 18.7155 4.01755 17H4.85714H8.83532V17.5885ZM7.71429 10C7.1883 10 6.7619 10.4477 6.7619 11C6.7619 11.5523 7.1883 12 7.71429 12H13.4286C13.9546 12 14.381 11.5523 14.381 11C14.381 10.4477 13.9546 10 13.4286 10H7.71429ZM6.7619 7C6.7619 6.44772 7.1883 6 7.71429 6H13.4286C13.9546 6 14.381 6.44772 14.381 7C14.381 7.55228 13.9546 8 13.4286 8H7.71429C7.1883 8 6.7619 7.55228 6.7619 7Z" fill="#0263B2"/>
</svg>
